<svg id="Artwork" height="512" viewBox="0 0 24 24" width="512" xmlns="http://www.w3.org/2000/svg" xmlns:xlink="http://www.w3.org/1999/xlink"><linearGradient id="linear-gradient" gradientUnits="userSpaceOnUse" x1="12" x2="12" y1="2.833" y2="21.374"><stop offset="0" stop-color="#faee5e"/><stop offset="1" stop-color="#edc12d"/></linearGradient><linearGradient id="linear-gradient-2" gradientUnits="userSpaceOnUse" x1="12" x2="12" y1="4.926" y2="18.952"><stop offset="0" stop-color="#efc938"/><stop offset="1" stop-color="#f1b62e"/></linearGradient><circle cx="12" cy="12" fill="#f1d33d" r="10"/><path d="m12 22a10 10 0 0 0 10-10h-20a10 10 0 0 0 10 10z" fill="#e7a324"/><circle cx="12" cy="12.129" fill="url(#linear-gradient)" r="9.218"/><path d="m12 21.344a9.216 9.216 0 0 1 -9.214-9.144v.077a9.3 9.3 0 0 0 9.214 9.37 9.3 9.3 0 0 0 9.218-9.369c0-.026 0-.051 0-.077a9.216 9.216 0 0 1 -9.218 9.143z" fill="#d38e26"/><circle cx="12" cy="12" fill="#f9ee60" r="7.6"/><path d="m12 4.4a7.6 7.6 0 0 0 -7.6 7.6h15.2a7.6 7.6 0 0 0 -7.6-7.6z" fill="#e3a22c"/><circle cx="12" cy="12" fill="url(#linear-gradient-2)" r="7"/><path d="m14.546 10.354a.652.652 0 0 0 -.627 0l-1.439.823-.978.537-1.439.823a.654.654 0 0 1 -.628 0l-1.143-.644a.614.614 0 0 1 -.314-.519v-1.274a.577.577 0 0 1 .314-.519l1.125-.626a.652.652 0 0 1 .627 0l1.126.626a.614.614 0 0 1 .313.519v.823l.978-.555v-.819a.578.578 0 0 0 -.313-.519l-2.085-1.18a.649.649 0 0 0 -.628 0l-2.121 1.18a.579.579 0 0 0 -.314.519v2.379a.577.577 0 0 0 .314.519l2.121 1.181a.654.654 0 0 0 .628 0l1.439-.8.978-.555 1.439-.805a.652.652 0 0 1 .627 0l1.126.626a.617.617 0 0 1 .313.519v1.27a.576.576 0 0 1 -.313.519l-1.126.644a.652.652 0 0 1 -.627 0l-1.126-.626a.614.614 0 0 1 -.313-.519v-.823l-.978.555v.823a.579.579 0 0 0 .314.519l2.121 1.18a.649.649 0 0 0 .628 0l2.121-1.18a.615.615 0 0 0 .314-.524v-2.379a.577.577 0 0 0 -.314-.519z" fill="#fff"/></svg>