<svg id="polygon" enable-background="new 0 0 360 360" height="512" viewBox="0 0 360 360" width="512" xmlns="http://www.w3.org/2000/svg"><circle cx="180" cy="180" fill="#262964" r="168"/><circle cx="180" cy="180" fill="#555abe" r="144"/><path d="m229.379 147.164c-3.509-2.005-8.021-2.005-12.031 0l-28.073 16.543-19.05 10.527-27.572 16.543c-3.509 2.005-8.021 2.005-12.031 0l-21.556-13.034c-3.509-2.005-6.016-6.016-6.016-10.527v-25.065c0-4.01 2.005-8.021 6.016-10.527l21.556-12.533c3.509-2.005 8.021-2.005 12.031 0l21.556 13.034c3.509 2.005 6.016 6.016 6.016 10.527v16.543l19.05-11.029v-17.044c0-4.01-2.005-8.021-6.016-10.527l-40.104-23.561c-3.509-2.005-8.021-2.005-12.031 0l-41.107 24.063c-4.01 2.005-6.016 6.016-6.016 10.026v47.123c0 4.01 2.005 8.021 6.016 10.527l40.606 23.561c3.509 2.005 8.021 2.005 12.031 0l27.572-16.042 19.05-11.029 27.572-16.042c3.509-2.005 8.021-2.005 12.031 0l21.556 12.533c3.509 2.005 6.016 6.016 6.016 10.527v25.065c0 4.01-2.005 8.021-6.016 10.527l-21.055 12.533c-3.509 2.005-8.021 2.005-12.031 0l-21.556-12.533c-3.509-2.005-6.016-6.016-6.016-10.527v-16.042l-19.05 11.029v16.543c0 4.01 2.005 8.021 6.016 10.527l40.606 23.561c3.509 2.005 8.021 2.005 12.031 0l40.606-23.561c3.509-2.005 6.016-6.016 6.016-10.527v-47.624c0-4.01-2.005-8.021-6.016-10.527z" fill="#fff"/></svg>