<svg xmlns="http://www.w3.org/2000/svg" xmlns:xlink="http://www.w3.org/1999/xlink" width="149.592" height="149.593" viewBox="0 0 149.592 149.593">
  <defs>
    <linearGradient id="linear-gradient" y1="0.5" x2="1" y2="0.5" gradientUnits="objectBoundingBox">
      <stop offset="0" stop-color="#ff387a"/>
      <stop offset="0.167" stop-color="#e6398c"/>
      <stop offset="0.524" stop-color="#a63eba"/>
      <stop offset="1" stop-color="#4845ff"/>
    </linearGradient>
  </defs>
  <g id="Group_241" data-name="Group 241" transform="translate(-1323.724 -4659.827)">
    <path id="Path_251" data-name="Path 251" d="M1473.316,4764.841c-2.751,7.769-9.993,9.428-18.5,8.519-12.788-1.369-23.509-7.34-33.158-15.455a7.056,7.056,0,0,0-6.587-1.759c-11.748,2.3-23.144,5.8-34.507,9.473a7.344,7.344,0,0,0-4.219,3.891c-6.067,10.7-12.639,21.051-21.439,29.784-4.858,4.822-10.28,8.723-17.182,10.078-4.1,0-8.2-.08-12.3.044-1.434.044-1.747-.272-1.706-1.706.121-4.317.043-8.64.043-12.96,5.2-9.787,14.25-15.174,23.416-20.382a131.265,131.265,0,0,1,15.543-7.458,6.867,6.867,0,0,0,3.8-3.428,369.772,369.772,0,0,0,20.343-48.967,7.7,7.7,0,0,0-.426-5.746c-4.1-10.111-6.967-20.516-6.952-31.53a46.343,46.343,0,0,1,.6-6.588c.741-5.067,3.239-8.87,8.151-10.824h5.982c9.087,3.451,11.045,11.22,11.377,19.595.487,12.332-2.731,24.126-6.243,35.795a8.414,8.414,0,0,0,.755,7.469,145.334,145.334,0,0,0,18.622,24.966,5.446,5.446,0,0,0,5.481,1.936c11.945-1.91,23.953-3.047,35.9.018,5.71,1.465,10.945,3.764,13.206,9.918Zm-91.441-4.795a301.9,301.9,0,0,1,32.588-8.739,174.305,174.305,0,0,1-18.606-24.969A248.724,248.724,0,0,1,1381.875,4760.046Zm45.181-5.368c5.093,5.7,18.192,12.2,25.372,12.642a10.577,10.577,0,0,0,5.819-.89,6.211,6.211,0,0,0,3.629-5.843,5.635,5.635,0,0,0-3.538-5.49,17.822,17.822,0,0,0-4.064-1.342c-6.351-1.192-12.76-.909-19.138-.349C1432.462,4753.641,1429.645,4753.394,1427.056,4754.678Zm-66.8,19.673c-9.811,4.045-19.082,8.9-26.873,16.174a17.219,17.219,0,0,0-3.828,4.988c-1.024,2.107-1.474,4.25.386,6.159,1.8,1.844,3.909,1.792,6.129.823a22.184,22.184,0,0,0,6.309-4.245C1349.721,4791.365,1355.294,4783.141,1360.261,4774.351Zm29.8-71.164c2.972-10,5.905-19.939,5.458-30.472-.2-4.743-1.709-7.225-4.5-7.425-3.023-.216-5.077,2.18-5.839,6.811-.018.109-.031.219-.042.329C1384.077,4683.078,1386.064,4693.258,1390.057,4703.187Z" fill="url(#linear-gradient)"/>
  </g>
</svg>
