<svg xmlns="http://www.w3.org/2000/svg" xmlns:xlink="http://www.w3.org/1999/xlink" width="802.589" height="517.973" viewBox="0 0 802.589 517.973">
  <defs>
    <radialGradient id="radial-gradient" cx="0.449" cy="0.485" r="1.391" gradientTransform="translate(0.211) scale(0.577 1)" gradientUnits="objectBoundingBox">
      <stop offset="0" stop-color="#42e8e0"/>
      <stop offset="0.106" stop-color="#36b5bf"/>
      <stop offset="0.22" stop-color="#2c87a0"/>
      <stop offset="0.338" stop-color="#235f86"/>
      <stop offset="0.459" stop-color="#1b3e71"/>
      <stop offset="0.582" stop-color="#162560"/>
      <stop offset="0.711" stop-color="#121355"/>
      <stop offset="0.846" stop-color="#0f084e"/>
      <stop offset="1" stop-color="#0f054c"/>
    </radialGradient>
    <linearGradient id="linear-gradient" y1="0.5" x2="1" y2="0.5" gradientUnits="objectBoundingBox">
      <stop offset="0" stop-color="#bcbeff"/>
      <stop offset="0.151" stop-color="#a2a6f5"/>
      <stop offset="0.387" stop-color="#8188e8"/>
      <stop offset="0.612" stop-color="#6a72de"/>
      <stop offset="0.822" stop-color="#5b65d8"/>
      <stop offset="1" stop-color="#5761d7"/>
    </linearGradient>
    <linearGradient id="linear-gradient-2" x1="0.643" y1="0.828" x2="0.357" y2="0.172" gradientTransform="matrix(1, 0, 0, 1, 0, 0)" xlink:href="#radial-gradient"/>
    <clipPath id="clip-path">
      <path id="Path_58" data-name="Path 58" d="M414.419,2203.151,200.55,2079.638c-9.543-5.509-8.346-15.132,2.672-21.494l415.121-239.606c11.018-6.361,27.687-7.052,37.229-1.543l213.87,123.513c9.542,5.509,8.346,15.132-2.673,21.494l-415.12,239.606C440.63,2207.969,423.962,2208.66,414.419,2203.151Z" opacity="0.5" fill="url(#radial-gradient)" style="mix-blend-mode: lighten;isolation: isolate"/>
    </clipPath>
    <linearGradient id="linear-gradient-3" x1="0.099" y1="-0.384" x2="0.893" y2="0.768" gradientUnits="objectBoundingBox">
      <stop offset="0" stop-color="#bcbeff"/>
      <stop offset="0.227" stop-color="#aaadf7"/>
      <stop offset="0.68" stop-color="#7b82e5"/>
      <stop offset="1" stop-color="#5761d7"/>
    </linearGradient>
    <linearGradient id="linear-gradient-4" y1="0.5" x2="1" y2="0.5" gradientUnits="objectBoundingBox">
      <stop offset="0" stop-color="#e9e9fd"/>
      <stop offset="0.36" stop-color="#d2d2f9"/>
      <stop offset="0.706" stop-color="#c4c3f6"/>
      <stop offset="1" stop-color="#c0bff6"/>
    </linearGradient>
    <clipPath id="clip-path-2">
      <path id="Path_93" data-name="Path 93" d="M700.66,2235.1l26.476,15.26,105.436-60.874V2072.421l-131.913,76.16Z" fill="none"/>
    </clipPath>
  </defs>
  <g id="Group_468" data-name="Group 468" transform="translate(-108.154 -1804.327)">
    <g id="Group_58" data-name="Group 58">
      <path id="Path_45" data-name="Path 45" d="M430.685,2277.412c-6.352,0-12.417-1.28-16.943-3.891L191.97,2145.48c-4.448-2.569-6.9-6.143-6.9-10.064,0-4.7,3.521-9.434,9.658-12.979l422.965-244.2c11.5-6.637,28.973-7.354,38.955-1.6l221.774,128.041c4.446,2.569,6.9,6.143,6.9,10.062,0,4.7-3.52,9.436-9.657,12.981L452.7,2271.926A45.257,45.257,0,0,1,430.685,2277.412Zm-16.463-4.719c9.709,5.606,26.757,4.893,37.993-1.6l422.968-244.2c5.834-3.369,9.182-7.8,9.182-12.153,0-3.564-2.28-6.844-6.42-9.234L656.171,1877.47c-9.707-5.606-26.757-4.891-37.995,1.595l-422.967,244.2c-5.834,3.369-9.181,7.8-9.181,12.151,0,3.566,2.28,6.845,6.419,9.236Z" fill="#42e8e0"/>
    </g>
    <g id="Group_59" data-name="Group 59">
      <path id="Path_46" data-name="Path 46" d="M884.842,1955.6l-31.857,5.485L656.411,1847.6c-9.862-5.694-27.087-4.98-38.475,1.594L241.869,2066.313l-56.314,9.7,0,19.966.026,0c-.027,3.639,2.137,7.119,6.632,9.715l221.773,128.041c9.862,5.693,27.087,4.979,38.474-1.595l422.967-244.2c6.13-3.539,9.289-8.054,9.388-12.358l.032-.005Z" fill="url(#linear-gradient)"/>
      <path id="Path_47" data-name="Path 47" d="M413.981,2213.627,192.208,2085.586c-9.862-5.694-8.625-15.639,2.762-22.213l422.966-244.2c11.388-6.574,28.613-7.288,38.475-1.595l221.773,128.041c9.862,5.694,8.625,15.639-2.762,22.213l-422.967,244.2C441.068,2218.606,423.843,2219.32,413.981,2213.627Z" fill="#24126a"/>
      <path id="Path_48" data-name="Path 48" d="M875.422,1967.832l-422.967,244.2c-11.387,6.574-28.612,7.288-38.474,1.595L192.208,2085.585c-3.955-2.283-6.094-5.253-6.54-8.412-.612,4.1,1.516,8.1,6.54,11l221.773,128.041c9.862,5.694,27.087,4.98,38.474-1.594l422.967-244.2c6.82-3.938,9.969-9.082,9.3-13.8C884.136,1960.57,881.008,1964.607,875.422,1967.832Z" fill="#fff"/>
      <path id="Path_49" data-name="Path 49" d="M414.419,2208.665,200.55,2085.152c-9.543-5.509-8.346-15.133,2.672-21.494l415.121-239.606c11.018-6.362,27.687-7.053,37.229-1.543l213.87,123.512c9.542,5.51,8.346,15.133-2.673,21.495l-415.12,239.605C440.63,2213.483,423.962,2214.174,414.419,2208.665Z" fill="#453c9e" opacity="0.51"/>
    </g>
    <g id="Group_60" data-name="Group 60">
      <path id="Path_50" data-name="Path 50" d="M430.584,2207.541c-6.19,0-12.1-1.247-16.51-3.793L200.2,2080.236c-4.377-2.527-6.786-6.056-6.785-9.935,0-4.634,3.447-9.285,9.459-12.755L618,1817.94c11.189-6.457,28.2-7.151,37.918-1.543L869.789,1939.91c4.375,2.526,6.784,6.055,6.784,9.932,0,4.637-3.449,9.285-9.462,12.757l-415.12,239.606A44,44,0,0,1,430.584,2207.541Zm-15.818-4.988c9.332,5.39,25.724,4.7,36.538-1.543L866.425,1961.4c5.573-3.218,8.77-7.431,8.77-11.562,0-3.364-2.165-6.467-6.1-8.737l-213.87-123.513c-9.337-5.392-25.726-4.7-36.541,1.543L203.567,2058.741c-5.574,3.216-8.77,7.431-8.771,11.56,0,3.367,2.165,6.47,6.1,8.74Z" opacity="0.8" fill="url(#linear-gradient-2)" style="mix-blend-mode: lighten;isolation: isolate"/>
    </g>
    <g id="Group_64" data-name="Group 64" opacity="0.3">
      <path id="Path_51" data-name="Path 51" d="M414.419,2203.151,200.55,2079.638c-9.543-5.509-8.346-15.132,2.672-21.494l415.121-239.606c11.018-6.361,27.687-7.052,37.229-1.543l213.87,123.513c9.542,5.509,8.346,15.132-2.673,21.494l-415.12,239.606C440.63,2207.969,423.962,2208.66,414.419,2203.151Z" opacity="0.5" fill="url(#radial-gradient)" style="mix-blend-mode: lighten;isolation: isolate"/>
      <g id="Group_63" data-name="Group 63" clip-path="url(#clip-path)">
        <g id="Group_61" data-name="Group 61">
          <path id="Path_52" data-name="Path 52" d="M727.186,2082.725l-3.081-.4a12.146,12.146,0,0,0-1.07-.7L485.059,1944.232c-6.148-3.55-16.889-3.105-23.989.995L322.24,2025.38a14.359,14.359,0,0,0-4.241,3.552l-1.632-.479v4.8h.012c.017,2.24,1.37,4.377,4.139,5.975l237.975,137.4c6.149,3.55,16.889,3.1,23.989-.995l138.831-80.154c3.967-2.29,5.954-5.236,5.866-8.01h.007Z" fill="#9ffff8"/>
          <path id="Path_53" data-name="Path 53" d="M558.493,2171.808l-237.975-137.4c-6.149-3.55-5.378-9.751,1.722-13.85l138.83-80.154c7.1-4.1,17.841-4.545,23.99-1l237.975,137.4c6.149,3.55,5.378,9.751-1.722,13.85l-138.831,80.154C575.382,2174.913,564.642,2175.358,558.493,2171.808Z" fill="#42e8e0"/>
        </g>
        <g id="Group_62" data-name="Group 62">
          <path id="Path_54" data-name="Path 54" d="M401.572,2046.647l-29.381-16.963c-2.733-1.578-2.39-4.335.766-6.158h0c3.157-1.822,7.932-2.02,10.666-.442L413,2040.047c2.733,1.579,2.39,4.335-.766,6.158h0C409.081,2048.027,404.306,2048.225,401.572,2046.647Z" fill="#fff"/>
          <path id="Path_55" data-name="Path 55" d="M455.791,2077.95l-29.381-16.963c-2.734-1.578-2.391-4.335.765-6.158h0c3.156-1.822,7.931-2.02,10.665-.442l29.381,16.963c2.734,1.579,2.391,4.336-.766,6.158h0C463.3,2079.331,458.525,2079.529,455.791,2077.95Z" fill="#fff"/>
          <path id="Path_56" data-name="Path 56" d="M510.009,2109.253l-29.381-16.963c-2.734-1.578-2.391-4.335.766-6.158h0c3.157-1.822,7.932-2.02,10.666-.442l29.38,16.963c2.734,1.579,2.391,4.336-.765,6.158h0C517.518,2110.634,512.743,2110.832,510.009,2109.253Z" fill="#fff"/>
          <path id="Path_57" data-name="Path 57" d="M564.228,2140.556l-29.381-16.963c-2.734-1.578-2.391-4.335.765-6.158h0c3.157-1.822,7.932-2.02,10.666-.442l29.381,16.963c2.734,1.579,2.391,4.336-.766,6.158h0C571.736,2141.937,566.961,2142.134,564.228,2140.556Z" fill="#fff"/>
        </g>
      </g>
    </g>
    <path id="Path_59" data-name="Path 59" d="M823.765,1961.009a13.067,13.067,0,0,1-11.822,0c-3.264-1.885-3.265-4.941,0-6.826a13.067,13.067,0,0,1,11.822,0C827.029,1956.068,827.029,1959.124,823.765,1961.009Z" fill="#24126a" opacity="0.4"/>
    <path id="Path_60" data-name="Path 60" d="M778.641,1928.131l23.141,13.361c2.827,1.632,2.473,4.483-.792,6.368h0c-3.264,1.885-8.2,2.089-11.029.457l-23.142-13.361c-2.827-1.632-2.472-4.483.792-6.368h0C770.875,1926.7,775.813,1926.5,778.641,1928.131Z" fill="#24126a" opacity="0.4"/>
    <path id="Path_61" data-name="Path 61" d="M823.765,1952.713a13.07,13.07,0,0,1-11.822,0c-3.264-1.885-3.265-4.941,0-6.826a13.068,13.068,0,0,1,11.822,0C827.029,1947.772,827.029,1950.828,823.765,1952.713Z" fill="#42e8e0"/>
    <path id="Path_62" data-name="Path 62" d="M778.641,1919.835l23.141,13.361c2.827,1.632,2.473,4.483-.792,6.368h0c-3.264,1.885-8.2,2.089-11.029.457l-23.142-13.361c-2.827-1.632-2.472-4.483.792-6.368h0C770.875,1918.408,775.813,1918.2,778.641,1919.835Z" fill="#42e8e0"/>
    <g id="Group_76" data-name="Group 76">
      <g id="Group_67" data-name="Group 67" opacity="0.3">
        <path id="Path_63" data-name="Path 63" d="M232.06,2286.359v-10.8l-2.986-1.661c-.843,5.1-6.84,8.453-11.853,9.151l-34.144,19.966-14.9,5.381-47.563-24.545,1.1-.635c-4.065-1.9-6.254-6.242-8.453-10.205l-3.2,1.91-1.9.534v11.073h0c0,2.115,1.4,4.231,4.184,5.841l47.651,27.511c5.579,3.222,14.658,3.222,20.237,0l47.649-27.51c2.744-1.584,4.139-3.658,4.183-5.739,0-.093,0-.185-.005-.278Z" fill="url(#linear-gradient-3)"/>
        <path id="Path_64" data-name="Path 64" d="M217.22,2283.053l-34.144,19.966-12.969,4.683v14.6a20.691,20.691,0,0,0,10.119-2.416l47.649-27.51c2.744-1.584,4.139-3.658,4.183-5.739,0-.093,0-.185-.005-.278l.007,0v-10.8l-2.729-1.518h-.285C228.114,2279.06,222.186,2282.361,217.22,2283.053Z" fill="#0f054c" opacity="0.3"/>
        <g id="Group_65" data-name="Group 65">
          <path id="Path_65" data-name="Path 65" d="M159.989,2308.916,112.338,2281.4c-5.579-3.221-5.579-8.462,0-11.683l47.65-27.511c5.579-3.221,14.657-3.221,20.236,0l47.651,27.511c5.579,3.221,5.579,8.462,0,11.683l-47.649,27.511C174.647,2312.137,165.568,2312.137,159.989,2308.916Z" fill="url(#linear-gradient-4)"/>
        </g>
        <g id="Group_66" data-name="Group 66" opacity="0.3">
          <path id="Path_66" data-name="Path 66" d="M159.989,2308.916,112.338,2281.4c-5.579-3.221-5.579-8.462,0-11.683l47.65-27.511c5.579-3.221,14.657-3.221,20.236,0l47.651,27.511c5.579,3.221,5.579,8.462,0,11.683l-47.649,27.511C174.647,2312.137,165.568,2312.137,159.989,2308.916Z" fill="#0f054c"/>
        </g>
      </g>
      <g id="Group_75" data-name="Group 75">
        <g id="Group_74" data-name="Group 74">
          <path id="Path_67" data-name="Path 67" d="M170.108,2268.891a18.376,18.376,0,0,1-8.981-2.143l-47.651-27.51c-2.476-1.43-3.838-3.357-3.838-5.43s1.364-4,3.837-5.424l47.65-27.513c4.952-2.856,13.009-2.856,17.961,0l47.651,27.513c2.475,1.428,3.838,3.357,3.838,5.427s-1.362,4-3.837,5.427l-47.65,27.51A18.377,18.377,0,0,1,170.108,2268.891Zm0-69.339a17.5,17.5,0,0,0-8.564,2.044l-47.649,27.512c-2.205,1.273-3.419,2.941-3.419,4.7s1.214,3.433,3.421,4.7l47.65,27.511c4.721,2.728,12.4,2.728,17.128,0l47.65-27.511c2.2-1.272,3.418-2.942,3.418-4.7s-1.215-3.43-3.42-4.7L178.67,2201.6A17.5,17.5,0,0,0,170.1,2199.552Z" fill="#42e8e0"/>
          <g id="Group_73" data-name="Group 73">
            <path id="Path_68" data-name="Path 68" d="M232.06,2223.251v-16.317l-2.987-1.661c-.843,5.1-6.84,8.453-11.853,9.151l-34.144,19.966-14.9,5.381-47.563-24.545,1.1-.635c-4.065-1.9-6.254-6.242-8.453-10.205l-3.2,1.91-1.9.534v16.594h0c0,2.115,1.4,4.231,4.184,5.841l47.651,27.511c5.579,3.222,14.658,3.222,20.237,0l47.649-27.51c2.744-1.584,4.139-3.658,4.183-5.739,0-.093,0-.185-.005-.278Z" fill="#42e8e0" opacity="0.4"/>
            <g id="Group_72" data-name="Group 72">
              <g id="Group_71" data-name="Group 71">
                <path id="Path_69" data-name="Path 69" d="M232.06,2208.747v-10.8l-2.987-1.661c-.843,5.1-6.84,8.453-11.853,9.151l-34.144,19.966-14.9,5.381-47.563-24.545,1.1-.635c-4.065-1.9-6.254-6.242-8.453-10.2l-3.2,1.91-1.9.534v11.073h0c0,2.115,1.4,4.231,4.184,5.841l47.651,27.511c5.579,3.222,14.658,3.222,20.237,0l47.649-27.51c2.744-1.584,4.139-3.658,4.183-5.739,0-.093,0-.185-.005-.278Z" fill="url(#linear-gradient-3)"/>
                <path id="Path_70" data-name="Path 70" d="M217.22,2205.441l-34.144,19.966-12.969,4.684v14.6a20.691,20.691,0,0,0,10.119-2.416l47.649-27.51c2.744-1.584,4.139-3.658,4.183-5.739,0-.093,0-.185-.005-.278l.007,0v-10.8l-2.73-1.518h-.285C228.114,2201.448,222.186,2204.749,217.22,2205.441Z" fill="#0f054c" opacity="0.3"/>
                <g id="Group_68" data-name="Group 68">
                  <path id="Path_71" data-name="Path 71" d="M159.989,2231.3l-47.651-27.512c-5.579-3.221-5.579-8.462,0-11.683l47.65-27.511c5.579-3.221,14.657-3.221,20.236,0l47.651,27.512c5.579,3.221,5.579,8.462,0,11.683L180.226,2231.3C174.647,2234.525,165.568,2234.525,159.989,2231.3Z" fill="url(#linear-gradient-4)"/>
                </g>
                <g id="Group_69" data-name="Group 69">
                  <path id="Path_72" data-name="Path 72" d="M170.108,2226.307a16.59,16.59,0,0,1-8.115-1.937h0l-37.228-21.492c-2.243-1.3-3.478-3.047-3.478-4.928s1.235-3.63,3.478-4.927l37.227-21.492c4.472-2.583,11.751-2.583,16.227,0l37.227,21.495c2.243,1.294,3.478,3.044,3.478,4.924s-1.233,3.632-3.478,4.928L178.22,2224.37A16.581,16.581,0,0,1,170.108,2226.307Zm0-55.891a15.718,15.718,0,0,0-7.694,1.84l-37.229,21.492c-1.972,1.139-3.06,2.632-3.06,4.2s1.088,3.065,3.062,4.2l37.228,21.493a17.03,17.03,0,0,0,15.392,0l37.227-21.493c1.974-1.138,3.06-2.632,3.06-4.2s-1.087-3.061-3.06-4.2L177.8,2172.256A15.736,15.736,0,0,0,170.1,2170.416Z" fill="#5351af"/>
                </g>
                <g id="Group_70" data-name="Group 70">
                  <path id="Path_73" data-name="Path 73" d="M227.875,2203.793,180.226,2231.3c-5.579,3.221-14.658,3.221-20.237,0l-47.651-27.512c-2.494-1.439-3.869-3.283-4.134-5.169-.327,2.334,1.049,4.733,4.134,6.515l47.651,27.511c5.579,3.221,14.658,3.221,20.237,0l47.649-27.511c3.086-1.781,4.461-4.18,4.134-6.514C231.744,2200.51,230.369,2202.354,227.875,2203.793Z" fill="#fff"/>
                </g>
              </g>
            </g>
          </g>
        </g>
      </g>
    </g>
    <g id="Group_79" data-name="Group 79" opacity="0.3">
      <path id="Path_74" data-name="Path 74" d="M292.11,1964.367v-10.8l-2.986-1.66c-.843,5.095-6.84,8.452-11.854,9.15l-34.144,19.967-14.9,5.381-47.563-24.546,1.1-.634c-4.065-1.9-6.255-6.243-8.453-10.206l-3.2,1.91-1.9.535v11.072h0c0,2.116,1.4,4.231,4.185,5.842l47.651,27.511c5.579,3.221,14.657,3.221,20.236,0l47.65-27.511c2.744-1.584,4.139-3.657,4.183-5.738,0-.093,0-.186-.006-.279Z" fill="url(#linear-gradient-3)"/>
      <path id="Path_75" data-name="Path 75" d="M277.27,1961.06l-34.144,19.967-12.969,4.683v14.6a20.688,20.688,0,0,0,10.119-2.416l47.65-27.511c2.744-1.584,4.139-3.657,4.183-5.738,0-.093,0-.186-.006-.279l.007,0v-10.8l-2.729-1.517H289.1C288.164,1957.067,282.236,1960.369,277.27,1961.06Z" fill="#0f054c" opacity="0.3"/>
      <g id="Group_77" data-name="Group 77">
        <path id="Path_76" data-name="Path 76" d="M220.04,1986.923l-47.651-27.511c-5.579-3.221-5.58-8.463,0-11.684l47.649-27.51c5.579-3.221,14.657-3.221,20.237,0l47.651,27.511c5.579,3.221,5.579,8.463,0,11.684l-47.65,27.51C234.7,1990.144,225.619,1990.144,220.04,1986.923Z" fill="url(#linear-gradient-4)"/>
      </g>
      <g id="Group_78" data-name="Group 78" opacity="0.3">
        <path id="Path_77" data-name="Path 77" d="M220.04,1986.923l-47.651-27.511c-5.579-3.221-5.58-8.463,0-11.684l47.649-27.51c5.579-3.221,14.657-3.221,20.237,0l47.651,27.511c5.579,3.221,5.579,8.463,0,11.684l-47.65,27.51C234.7,1990.144,225.619,1990.144,220.04,1986.923Z" fill="#0f054c"/>
      </g>
    </g>
    <g id="Group_87" data-name="Group 87">
      <g id="Group_86" data-name="Group 86">
        <path id="Path_78" data-name="Path 78" d="M230.159,1952.244a18.357,18.357,0,0,1-8.983-2.146l-47.65-27.51c-2.475-1.428-3.837-3.357-3.837-5.427s1.362-4,3.837-5.427l47.65-27.51c4.952-2.856,13.009-2.856,17.961,0l47.651,27.51c2.475,1.428,3.838,3.357,3.838,5.427s-1.363,4-3.838,5.427l-47.649,27.51A18.345,18.345,0,0,1,230.159,1952.244Zm0-69.34a17.494,17.494,0,0,0-8.564,2.045l-47.65,27.51c-2.2,1.272-3.418,2.943-3.418,4.7s1.214,3.43,3.418,4.7l47.652,27.51c4.721,2.729,12.4,2.726,17.128,0l47.649-27.51c2.2-1.273,3.42-2.943,3.42-4.7s-1.215-3.43-3.42-4.7l-47.65-27.51A17.5,17.5,0,0,0,230.156,1882.9Z" fill="#42e8e0"/>
        <g id="Group_85" data-name="Group 85">
          <path id="Path_79" data-name="Path 79" d="M292.11,1906.6v-16.317l-2.986-1.661c-.843,5.1-6.84,8.453-11.854,9.151l-34.144,19.966-14.9,5.381-47.563-24.545,1.1-.635c-4.065-1.9-6.255-6.242-8.453-10.2l-3.2,1.91-1.9.534v16.594h0c0,2.115,1.4,4.231,4.185,5.841l47.651,27.511c5.579,3.222,14.657,3.222,20.236,0l47.65-27.51c2.744-1.585,4.139-3.658,4.183-5.739,0-.093,0-.185-.006-.278Z" fill="#42e8e0" opacity="0.4"/>
          <g id="Group_84" data-name="Group 84">
            <g id="Group_83" data-name="Group 83">
              <path id="Path_80" data-name="Path 80" d="M292.11,1892.1v-10.8l-2.986-1.661c-.843,5.1-6.84,8.453-11.854,9.151l-34.144,19.966-14.9,5.381-47.563-24.545,1.1-.635c-4.065-1.9-6.255-6.242-8.453-10.2l-3.2,1.91-1.9.534v11.073h0c0,2.115,1.4,4.23,4.185,5.841l47.651,27.511c5.579,3.221,14.657,3.221,20.236,0l47.65-27.51c2.744-1.585,4.139-3.658,4.183-5.739,0-.093,0-.186-.006-.278Z" fill="url(#linear-gradient-3)"/>
              <path id="Path_81" data-name="Path 81" d="M277.27,1888.792l-34.144,19.966-12.969,4.683v14.6a20.69,20.69,0,0,0,10.119-2.416l47.65-27.51c2.744-1.585,4.139-3.658,4.183-5.739,0-.093,0-.186-.006-.278l.007,0v-10.8l-2.729-1.518H289.1C288.164,1884.8,282.236,1888.1,277.27,1888.792Z" fill="#0f054c" opacity="0.3"/>
              <g id="Group_80" data-name="Group 80">
                <path id="Path_82" data-name="Path 82" d="M220.04,1914.655l-47.651-27.512c-5.579-3.221-5.58-8.462,0-11.683l47.649-27.511c5.579-3.221,14.657-3.221,20.237,0l47.651,27.511c5.579,3.221,5.579,8.462,0,11.683l-47.65,27.511C234.7,1917.876,225.619,1917.876,220.04,1914.655Z" fill="url(#linear-gradient-4)"/>
              </g>
              <g id="Group_81" data-name="Group 81">
                <path id="Path_83" data-name="Path 83" d="M230.157,1909.657a16.6,16.6,0,0,1-8.113-1.936h0l-37.228-21.493c-2.245-1.3-3.48-3.046-3.478-4.928s1.235-3.63,3.478-4.924l37.227-21.495c4.472-2.578,11.752-2.578,16.226,0l37.228,21.495c2.243,1.3,3.478,3.044,3.478,4.926s-1.235,3.63-3.478,4.926l-37.227,21.493A16.594,16.594,0,0,1,230.157,1909.657Zm0-55.888a15.729,15.729,0,0,0-7.7,1.837L185.233,1877.1c-1.973,1.138-3.059,2.63-3.06,4.2s1.087,3.065,3.061,4.2L222.463,1907a17.029,17.029,0,0,0,15.392,0l37.227-21.492c1.972-1.139,3.06-2.633,3.06-4.2s-1.088-3.063-3.061-4.2l-37.227-21.495A15.736,15.736,0,0,0,230.156,1853.769Z" fill="#5351af"/>
              </g>
              <g id="Group_82" data-name="Group 82">
                <path id="Path_84" data-name="Path 84" d="M287.926,1887.144l-47.65,27.511c-5.579,3.221-14.657,3.221-20.236,0l-47.651-27.512c-2.494-1.439-3.87-3.283-4.134-5.169-.327,2.334,1.048,4.733,4.134,6.515L220.04,1916c5.579,3.221,14.657,3.221,20.236,0l47.65-27.511c3.085-1.781,4.461-4.18,4.133-6.514C291.8,1883.861,290.419,1885.7,287.926,1887.144Z" fill="#fff"/>
              </g>
            </g>
          </g>
        </g>
      </g>
    </g>
    <g id="Group_88" data-name="Group 88">
      <path id="Path_85" data-name="Path 85" d="M550.3,2106.834,365.439,2000.1c-4.777-2.757-4.177-7.574,1.338-10.759l107.843-62.263c5.515-3.184,13.858-3.53,18.635-.772l184.859,106.728c4.776,2.758,4.177,7.575-1.338,10.759l-107.843,62.263C563.417,2109.246,555.074,2109.591,550.3,2106.834Z" fill="#24126a" opacity="0.4"/>
      <path id="Path_86" data-name="Path 86" d="M727.186,1950.035l-3.081-.4a11.87,11.87,0,0,0-1.07-.694l-237.976-137.4c-6.148-3.55-16.889-3.1-23.989.994L322.24,1892.69a14.344,14.344,0,0,0-4.241,3.551l-1.632-.479v4.8l.012,0c.017,2.239,1.37,4.376,4.139,5.975l237.975,137.4c6.149,3.55,16.889,3.1,23.989-.994l138.831-80.154c3.967-2.291,5.954-5.237,5.866-8.011h.007Z" fill="#9ffff8"/>
      <path id="Path_87" data-name="Path 87" d="M558.493,2039.117,320.518,1901.722c-6.149-3.55-5.378-9.751,1.722-13.85l138.83-80.154c7.1-4.1,17.841-4.544,23.99-.994l237.975,137.4c6.149,3.55,5.378,9.751-1.722,13.85l-138.831,80.154C575.382,2042.222,564.642,2042.667,558.493,2039.117Z" fill="#42e8e0"/>
      <path id="Path_88" data-name="Path 88" d="M596.892,2029.8,336.65,1879.552l27.625-15.949,260.242,150.251Z" fill="#24126a"/>
    </g>
    <g id="Group_93" data-name="Group 93">
      <g id="Group_89" data-name="Group 89" opacity="0.1">
        <path id="Path_89" data-name="Path 89" d="M719.162,2245.748c0-26.862,18.859-59.527,42.123-72.958,11.654-6.729,22.2-7.353,29.828-2.924v0l7.964,4.659-2.313.217c4.2,5.14,6.645,12.716,6.645,22.368,0,26.862-18.86,59.527-42.124,72.959-7.994,4.615-15.467,6.358-21.835,5.569l.178,2.136-8.085-4.731-.1-.059-.327-.191.019-.005C723.73,2268.3,719.162,2258.96,719.162,2245.748Z" fill="#9ffff8"/>
        <ellipse id="Ellipse_7" data-name="Ellipse 7" cx="59.571" cy="34.393" rx="59.571" ry="34.393" transform="matrix(0.5, -0.866, 0.866, 0.5, 709.767, 2260.531)" fill="#42e8e0"/>
      </g>
      <path id="Path_90" data-name="Path 90" d="M766.613,2307.2c-36.877,0-73.75-8.1-101.825-24.311-27.275-15.747-42.3-36.71-42.3-59.028s15.023-43.284,42.3-59.033c56.152-32.418,147.508-32.413,203.655,0,27.277,15.75,42.3,36.713,42.3,59.031s-15.023,43.281-42.3,59.031C840.368,2299.095,803.488,2307.2,766.613,2307.2Zm.007-165.862c-36.729,0-73.449,8.069-101.411,24.214-27.009,15.595-41.884,36.3-41.884,58.309s14.875,42.712,41.882,58.3c55.914,32.283,146.9,32.285,202.817,0,27.009-15.593,41.884-36.3,41.884-58.307s-14.873-42.714-41.881-58.306C840.072,2149.408,803.343,2141.337,766.62,2141.337Z" fill="#42e8e0" opacity="0.2"/>
      <path id="Path_91" data-name="Path 91" d="M766.616,2275.706c-22.9,0-45.8-5.034-63.238-15.1h0c-16.968-9.8-26.312-22.847-26.315-36.748s9.347-26.955,26.318-36.755c34.868-20.128,91.605-20.128,126.474,0,16.969,9.8,26.315,22.849,26.315,36.75s-9.346,26.955-26.317,36.753C812.418,2270.672,789.517,2275.706,766.616,2275.706Zm0-102.876c-22.751,0-45.5,5-62.819,15-16.7,9.643-25.9,22.44-25.9,36.031s9.2,26.383,25.9,36.023h0c34.638,20,91,20,125.637,0,16.7-9.642,25.9-22.437,25.9-36.028s-9.2-26.386-25.9-36.026C812.117,2177.829,789.369,2172.83,766.618,2172.83Z" fill="#42e8e0"/>
      <g id="Group_92" data-name="Group 92">
        <g id="Group_91" data-name="Group 91" clip-path="url(#clip-path-2)">
          <g id="Group_90" data-name="Group 90">
            <path id="Path_92" data-name="Path 92" d="M719.162,2245.748c0-26.862,18.859-59.527,42.123-72.958,11.654-6.729,22.2-7.353,29.828-2.924v0l7.964,4.659-2.313.217c4.2,5.14,6.645,12.716,6.645,22.368,0,26.862-18.86,59.527-42.124,72.959-7.994,4.615-15.467,6.358-21.835,5.569l.178,2.136-8.085-4.731-.1-.059-.327-.191.019-.005C723.73,2268.3,719.162,2258.96,719.162,2245.748Z" fill="#9ffff8"/>
            <ellipse id="Ellipse_8" data-name="Ellipse 8" cx="59.571" cy="34.393" rx="59.571" ry="34.393" transform="matrix(0.5, -0.866, 0.866, 0.5, 709.767, 2260.531)" fill="#42e8e0"/>
          </g>
        </g>
      </g>
    </g>
  </g>
</svg>
