<svg xmlns="http://www.w3.org/2000/svg" xmlns:xlink="http://www.w3.org/1999/xlink" width="711.487" height="839.477" viewBox="0 0 711.487 839.477">
  <defs>
    <radialGradient id="radial-gradient" cx="0.475" cy="0.517" r="1.391" gradientTransform="translate(0.211) scale(0.577 1)" gradientUnits="objectBoundingBox">
      <stop offset="0" stop-color="#42e8e0"/>
      <stop offset="0.106" stop-color="#36b5bf"/>
      <stop offset="0.22" stop-color="#2c87a0"/>
      <stop offset="0.338" stop-color="#235f86"/>
      <stop offset="0.459" stop-color="#1b3e71"/>
      <stop offset="0.582" stop-color="#162560"/>
      <stop offset="0.711" stop-color="#121355"/>
      <stop offset="0.846" stop-color="#0f084e"/>
      <stop offset="1" stop-color="#0f054c"/>
    </radialGradient>
    <linearGradient id="linear-gradient" x1="0.099" y1="-0.384" x2="0.893" y2="0.768" gradientUnits="objectBoundingBox">
      <stop offset="0" stop-color="#bcbeff"/>
      <stop offset="0.227" stop-color="#aaadf7"/>
      <stop offset="0.68" stop-color="#7b82e5"/>
      <stop offset="1" stop-color="#5761d7"/>
    </linearGradient>
    <linearGradient id="linear-gradient-2" y1="0.5" x2="1" y2="0.5" gradientUnits="objectBoundingBox">
      <stop offset="0" stop-color="#e9e9fd"/>
      <stop offset="0.36" stop-color="#d2d2f9"/>
      <stop offset="0.706" stop-color="#c4c3f6"/>
      <stop offset="1" stop-color="#c0bff6"/>
    </linearGradient>
    <linearGradient id="linear-gradient-3" y1="0.5" x2="1" y2="0.5" gradientUnits="objectBoundingBox">
      <stop offset="0" stop-color="#bcbeff"/>
      <stop offset="0.151" stop-color="#a2a6f5"/>
      <stop offset="0.387" stop-color="#8188e8"/>
      <stop offset="0.612" stop-color="#6a72de"/>
      <stop offset="0.822" stop-color="#5b65d8"/>
      <stop offset="1" stop-color="#5761d7"/>
    </linearGradient>
    <linearGradient id="linear-gradient-4" x1="0.643" y1="0.828" x2="0.357" y2="0.172" gradientTransform="matrix(1, 0, 0, 1, 0, 0)" xlink:href="#radial-gradient"/>
    <clipPath id="clip-path">
      <path id="Path_109" data-name="Path 109" d="M1313.653,2997.984,1115.62,2883.617c-8.836-5.1-7.728-14.013,2.475-19.9l384.383-221.865c10.2-5.89,25.637-6.53,34.473-1.429l198.034,114.368c8.836,5.1,7.728,14.012-2.475,19.9l-384.384,221.864C1337.924,3002.446,1322.489,3003.085,1313.653,2997.984Z" opacity="0.5" fill="url(#radial-gradient)" style="mix-blend-mode: lighten;isolation: isolate"/>
    </clipPath>
    <linearGradient id="linear-gradient-14" x1="0.113" y1="0.194" x2="0.87" y2="1.433" gradientUnits="objectBoundingBox">
      <stop offset="0.242" stop-color="#5761d7"/>
      <stop offset="0.392" stop-color="#7a81e5"/>
      <stop offset="0.546" stop-color="#979bf0"/>
      <stop offset="0.7" stop-color="#abaef8"/>
      <stop offset="0.852" stop-color="#b7bafd"/>
      <stop offset="1" stop-color="#bcbeff"/>
    </linearGradient>
    <linearGradient id="linear-gradient-17" x1="0.5" y1="1" x2="0.5" gradientUnits="objectBoundingBox">
      <stop offset="0" stop-color="#42e8e0"/>
      <stop offset="0.029" stop-color="#4ee9e1"/>
      <stop offset="0.153" stop-color="#7cefe9"/>
      <stop offset="0.282" stop-color="#a4f4f0"/>
      <stop offset="0.413" stop-color="#c5f8f5"/>
      <stop offset="0.547" stop-color="#defbf9"/>
      <stop offset="0.686" stop-color="#f0fdfc"/>
      <stop offset="0.833" stop-color="#fbfefe"/>
      <stop offset="1" stop-color="#fff"/>
    </linearGradient>
  </defs>
  <g id="Group_468" data-name="Group 468" transform="translate(-1101.289 -2385.324)">
    <g id="Group_139" data-name="Group 139">
      <g id="Group_101" data-name="Group 101">
        <g id="Group_100" data-name="Group 100">
          <path id="Path_94" data-name="Path 94" d="M1622.72,3224.8c-7.257,0-14.512-1.6-20.037-4.786L1496.4,3158.652c-5.52-3.185-8.558-7.488-8.558-12.106s3.038-8.921,8.558-12.106l106.287-61.363c11.046-6.371,29.018-6.371,40.064,0l106.289,61.363c5.52,3.185,8.561,7.488,8.561,12.106s-3.041,8.921-8.561,12.106l-106.284,61.363C1637.232,3223.205,1629.974,3224.8,1622.72,3224.8Zm-.006-154.668c-6.918,0-13.834,1.516-19.1,4.56l-106.287,61.363c-4.917,2.839-7.625,6.565-7.625,10.49s2.708,7.65,7.625,10.49l106.291,61.363c10.529,6.087,27.67,6.081,38.2,0l106.287-61.363c4.917-2.84,7.627-6.565,7.627-10.49s-2.71-7.651-7.627-10.49l-106.289-61.363C1636.549,3071.649,1629.633,3070.133,1622.714,3070.133Z" fill="#42e8e0"/>
          <g id="Group_99" data-name="Group 99">
            <path id="Path_95" data-name="Path 95" d="M1760.907,3122.993v-36.4l-6.66-3.7c-1.881,11.366-15.258,18.854-26.441,20.411l-76.16,44.537-33.238,12-106.093-54.75,2.452-1.415c-9.067-4.236-13.952-13.925-18.856-22.764l-7.142,4.26-4.243,1.192v37.013h0c0,4.719,3.111,9.437,9.334,13.03l106.289,61.366c12.445,7.185,32.694,7.185,45.139,0l106.286-61.365c6.122-3.534,9.232-8.158,9.331-12.8.005-.207-.005-.414-.013-.622Z" fill="#42e8e0" opacity="0.4"/>
            <g id="Group_98" data-name="Group 98">
              <g id="Group_97" data-name="Group 97">
                <path id="Path_96" data-name="Path 96" d="M1760.907,3090.641v-24.082l-6.66-3.7c-1.881,11.365-15.258,18.854-26.441,20.41l-76.16,44.537-33.238,12-106.093-54.75,2.452-1.416c-9.067-4.235-13.952-13.925-18.856-22.763l-7.142,4.26-4.243,1.192v24.7h0c0,4.718,3.111,9.437,9.334,13.029l106.289,61.366c12.445,7.186,32.694,7.186,45.139,0l106.286-61.364c6.122-3.534,9.232-8.158,9.331-12.8.005-.208-.005-.415-.013-.622Z" fill="url(#linear-gradient)"/>
                <path id="Path_97" data-name="Path 97" d="M1727.806,3083.265l-76.16,44.537-28.929,10.447v32.561c8.173,0,16.348-1.8,22.571-5.389l106.286-61.364c6.122-3.534,9.232-8.158,9.331-12.8.005-.208-.005-.415-.013-.622l.015.006v-24.082l-6.087-3.386h-.636C1752.106,3074.359,1738.884,3081.723,1727.806,3083.265Z" fill="#0f054c" opacity="0.3"/>
                <g id="Group_94" data-name="Group 94">
                  <path id="Path_98" data-name="Path 98" d="M1600.149,3140.955l-106.289-61.366c-12.446-7.185-12.446-18.877,0-26.062l106.286-61.364c12.444-7.185,32.694-7.185,45.14,0l106.289,61.366c12.445,7.185,12.445,18.876,0,26.061l-106.286,61.364C1632.843,3148.14,1612.594,3148.14,1600.149,3140.955Z" fill="url(#linear-gradient-2)"/>
                </g>
                <g id="Group_95" data-name="Group 95">
                  <path id="Path_99" data-name="Path 99" d="M1622.717,3129.807c-6.554,0-13.108-1.438-18.1-4.319h0l-83.04-47.94c-5.006-2.892-7.761-6.8-7.758-10.994s2.755-8.1,7.758-10.982l83.038-47.946c9.975-5.751,26.213-5.751,36.194,0l83.04,47.946c5,2.89,7.758,6.789,7.758,10.988s-2.754,8.1-7.758,10.988l-83.037,47.94C1635.828,3128.369,1629.271,3129.807,1622.717,3129.807Zm0-124.663c-6.218,0-12.433,1.364-17.166,4.1l-83.038,47.945c-4.4,2.54-6.824,5.867-6.827,9.367s2.424,6.838,6.83,9.377l83.04,47.941c9.464,5.468,24.865,5.468,34.334,0l83.037-47.941c4.4-2.539,6.828-5.872,6.828-9.371s-2.427-6.833-6.83-9.373l-83.038-47.945C1635.151,3006.508,1628.93,3005.144,1622.714,3005.144Z" fill="#5351af"/>
                </g>
                <g id="Group_96" data-name="Group 96">
                  <path id="Path_100" data-name="Path 100" d="M1751.574,3079.591l-106.286,61.364c-12.445,7.185-32.694,7.185-45.139,0l-106.289-61.366c-5.563-3.212-8.632-7.324-9.222-11.531-.73,5.206,2.339,10.558,9.222,14.531l106.289,61.367c12.445,7.185,32.694,7.185,45.139,0l106.286-61.365c6.883-3.973,9.951-9.324,9.221-14.53C1760.2,3072.268,1757.136,3076.379,1751.574,3079.591Z" fill="#fff"/>
                </g>
              </g>
            </g>
          </g>
        </g>
      </g>
      <g id="Group_102" data-name="Group 102">
        <path id="Path_101" data-name="Path 101" d="M1328.717,3066.747c-5.882,0-11.5-1.185-15.69-3.6l-205.353-118.561c-4.118-2.376-6.385-5.685-6.385-9.316,0-4.357,3.259-8.737,8.944-12.018l391.648-226.118c10.647-6.148,26.826-6.812,36.067-1.477l205.353,118.56c4.118,2.379,6.387,5.686,6.386,9.317,0,4.356-3.26,8.737-8.944,12.018l-391.648,226.118A41.889,41.889,0,0,1,1328.717,3066.747Zm-15.248-4.372c9,5.193,24.78,4.536,35.183-1.476L1740.3,2834.78c5.4-3.117,8.5-7.219,8.5-11.251,0-3.3-2.111-6.337-5.943-8.55l-205.353-118.561c-9-5.188-24.777-4.53-35.183,1.477l-391.648,226.119c-5.4,3.119-8.5,7.219-8.5,11.251,0,3.3,2.111,6.337,5.944,8.55Z" fill="#42e8e0"/>
      </g>
      <g id="Group_103" data-name="Group 103">
        <path id="Path_102" data-name="Path 102" d="M1749.244,2768.765l-29.5,5.079-182.02-105.089c-9.131-5.272-25.081-4.611-35.625,1.477L1153.88,2871.278l-52.145,8.979,0,18.487.024,0c-.025,3.371,1.978,6.593,6.14,9L1313.248,3026.3c9.132,5.272,25.082,4.611,35.625-1.477L1740.522,2798.7c5.677-3.278,8.6-7.458,8.693-11.443l.029-.005Z" fill="url(#linear-gradient-3)"/>
        <path id="Path_103" data-name="Path 103" d="M1313.248,3007.684,1107.9,2889.123c-9.131-5.272-7.986-14.48,2.558-20.568L1502.1,2642.437c10.544-6.088,26.494-6.749,35.625-1.477l205.353,118.561c9.131,5.272,7.986,14.48-2.558,20.568l-391.649,226.118C1338.33,3012.295,1322.38,3012.956,1313.248,3007.684Z" fill="#24126a"/>
        <path id="Path_104" data-name="Path 104" d="M1740.522,2780.089l-391.649,226.118c-10.543,6.088-26.493,6.749-35.625,1.477L1107.9,2889.123c-3.661-2.114-5.642-4.864-6.056-7.789-.565,3.795,1.405,7.5,6.056,10.188l205.353,118.561c9.132,5.272,25.082,4.611,35.625-1.477l391.649-226.118c6.316-3.647,9.231-8.41,8.614-12.779C1748.591,2773.365,1745.695,2777.1,1740.522,2780.089Z" fill="#fff"/>
        <path id="Path_105" data-name="Path 105" d="M1313.653,3003.089,1115.62,2888.722c-8.836-5.1-7.728-14.012,2.475-19.9l384.383-221.864c10.2-5.891,25.637-6.531,34.473-1.429l198.034,114.367c8.836,5.1,7.728,14.012-2.475,19.9l-384.384,221.865C1337.924,3007.551,1322.489,3008.191,1313.653,3003.089Z" fill="#453c9e" opacity="0.51"/>
      </g>
      <g id="Group_104" data-name="Group 104">
        <path id="Path_106" data-name="Path 106" d="M1328.621,3002.05c-5.73,0-11.2-1.155-15.287-3.512L1115.3,2884.171c-4.053-2.34-6.285-5.607-6.285-9.2,0-4.294,3.193-8.6,8.759-11.813L1502.158,2641.3c10.361-5.981,26.112-6.624,35.112-1.428L1735.3,2754.235c4.052,2.339,6.283,5.607,6.283,9.2,0,4.291-3.192,8.6-8.758,11.813l-384.384,221.864A40.738,40.738,0,0,1,1328.621,3002.05Zm-14.648-4.619c8.646,5,23.824,4.353,33.834-1.429l384.383-221.864c5.162-2.98,8.122-6.884,8.122-10.706,0-3.115-2.005-5.989-5.646-8.091l-198.034-114.367c-8.647-5-23.826-4.352-33.835,1.429l-384.384,221.864c-5.16,2.98-8.12,6.882-8.12,10.707,0,3.115,2.005,5.988,5.646,8.09Z" opacity="0.8" fill="url(#linear-gradient-4)" style="mix-blend-mode: lighten;isolation: isolate"/>
      </g>
      <g id="Group_107" data-name="Group 107" opacity="0.1">
        <path id="Path_107" data-name="Path 107" d="M1313.653,2997.984,1115.62,2883.617c-8.836-5.1-7.728-14.013,2.475-19.9l384.383-221.865c10.2-5.89,25.637-6.53,34.473-1.429l198.034,114.368c8.836,5.1,7.728,14.012-2.475,19.9l-384.384,221.864C1337.924,3002.446,1322.489,3003.085,1313.653,2997.984Z" opacity="0.5" fill="url(#radial-gradient)" style="mix-blend-mode: lighten;isolation: isolate"/>
        <g id="Group_106" data-name="Group 106" clip-path="url(#clip-path)">
          <g id="Group_105" data-name="Group 105">
            <path id="Path_108" data-name="Path 108" d="M1532.391,2955.041c0-24.874-17.463-55.12-39-67.557-10.791-6.23-20.558-6.808-27.62-2.707v0l-7.374,4.314,2.142.2c-3.889,4.759-6.153,11.774-6.153,20.712,0,24.873,17.463,55.12,39.005,67.557,7.4,4.273,14.322,5.887,20.218,5.157l-.164,1.977,7.486-4.381.092-.054.3-.177-.017,0C1528.161,2975.919,1532.391,2967.274,1532.391,2955.041Z" fill="#9ffff8"/>
            <ellipse id="Ellipse_9" data-name="Ellipse 9" cx="31.847" cy="55.16" rx="31.847" ry="55.16" transform="translate(1430.77 2905.039) rotate(-30.002)" fill="#42e8e0"/>
          </g>
        </g>
      </g>
      <path id="Path_110" data-name="Path 110" d="M1692.69,2773.771a12.1,12.1,0,0,1-10.946,0c-3.023-1.746-3.023-4.575,0-6.32a12.1,12.1,0,0,1,10.947,0C1695.713,2769.2,1695.713,2772.025,1692.69,2773.771Z" fill="#24126a" opacity="0.4"/>
      <path id="Path_111" data-name="Path 111" d="M1650.907,2743.327l21.428,12.372c2.618,1.511,2.29,4.151-.733,5.9h0c-3.023,1.746-7.6,1.935-10.213.424l-21.428-12.372c-2.618-1.511-2.29-4.151.733-5.9h0C1643.717,2742.006,1648.289,2741.816,1650.907,2743.327Z" fill="#24126a" opacity="0.4"/>
      <path id="Path_112" data-name="Path 112" d="M1528.671,2669.124,1550.1,2681.5c2.618,1.511,2.289,4.151-.733,5.9h0c-3.023,1.745-7.595,1.935-10.213.423l-21.428-12.371c-2.618-1.512-2.29-4.152.733-5.9h0C1521.481,2667.8,1526.053,2667.613,1528.671,2669.124Z" fill="#24126a" opacity="0.4"/>
      <path id="Path_113" data-name="Path 113" d="M1692.69,2766.089a12.1,12.1,0,0,1-10.946,0c-3.023-1.745-3.023-4.575,0-6.32a12.1,12.1,0,0,1,10.947,0C1695.713,2761.514,1695.713,2764.344,1692.69,2766.089Z" fill="#42e8e0"/>
      <path id="Path_114" data-name="Path 114" d="M1650.907,2735.646l21.428,12.371c2.618,1.512,2.29,4.152-.733,5.9h0c-3.023,1.745-7.6,1.934-10.213.423l-21.428-12.372c-2.618-1.511-2.29-4.151.733-5.9h0C1643.717,2734.324,1648.289,2734.134,1650.907,2735.646Z" fill="#42e8e0"/>
      <path id="Path_115" data-name="Path 115" d="M1528.671,2661.442l21.428,12.372c2.618,1.511,2.289,4.151-.733,5.9h0c-3.023,1.745-7.595,1.935-10.213.424l-21.428-12.372c-2.618-1.511-2.29-4.151.733-5.9h0C1521.481,2660.12,1526.053,2659.931,1528.671,2661.442Z" fill="#42e8e0"/>
      <g id="Group_114" data-name="Group 114">
        <g id="Group_113" data-name="Group 113">
          <path id="Path_116" data-name="Path 116" d="M1755.411,3024.863a17.016,17.016,0,0,1-8.316-1.985l-44.122-25.473c-2.293-1.324-3.554-3.108-3.554-5.027s1.262-3.7,3.554-5.023l44.119-25.476c4.587-2.642,12.047-2.646,16.634,0l44.122,25.476c2.292,1.322,3.553,3.108,3.553,5.025s-1.261,3.7-3.553,5.025l-44.121,25.473A17.014,17.014,0,0,1,1755.411,3024.863Zm0-64.206a16.212,16.212,0,0,0-7.931,1.893l-44.121,25.476c-2.041,1.178-3.166,2.723-3.166,4.352s1.124,3.178,3.168,4.356l44.121,25.474a17.545,17.545,0,0,0,15.86,0l44.122-25.474c2.041-1.178,3.165-2.725,3.165-4.354s-1.124-3.176-3.165-4.354l-44.123-25.476A16.213,16.213,0,0,0,1755.41,2960.657Z" fill="#42e8e0"/>
          <g id="Group_112" data-name="Group 112">
            <path id="Path_117" data-name="Path 117" d="M1812.776,2982.6v-15.109l-2.765-1.538c-.781,4.718-6.334,7.827-10.976,8.473l-31.616,18.488-13.8,4.983-44.042-22.728,1.018-.588c-3.764-1.758-5.791-5.78-7.827-9.449l-2.965,1.768-1.762.495v15.365h0c0,1.959,1.291,3.917,3.874,5.409l44.123,25.474c5.166,2.982,13.572,2.983,18.738,0l44.122-25.473c2.541-1.468,3.832-3.387,3.873-5.314,0-.086,0-.172-.005-.258Z" fill="#42e8e0" opacity="0.4"/>
            <g id="Group_111" data-name="Group 111">
              <g id="Group_110" data-name="Group 110">
                <path id="Path_118" data-name="Path 118" d="M1812.776,2969.172v-10l-2.765-1.537c-.781,4.717-6.334,7.826-10.976,8.472l-31.616,18.488-13.8,4.983-44.042-22.728,1.018-.588c-3.764-1.758-5.791-5.78-7.827-9.449l-2.965,1.768-1.762.5v10.253h0c0,1.958,1.291,3.917,3.874,5.409l44.123,25.474c5.166,2.982,13.572,2.983,18.738,0l44.122-25.474c2.541-1.467,3.832-3.386,3.873-5.314,0-.085,0-.171-.005-.257Z" fill="url(#linear-gradient)"/>
                <path id="Path_119" data-name="Path 119" d="M1799.035,2966.11l-31.616,18.488-12.009,4.337v13.517a19.167,19.167,0,0,0,9.37-2.237l44.122-25.474c2.541-1.467,3.832-3.386,3.873-5.314,0-.085,0-.171-.005-.257l.006,0v-10l-2.527-1.405h-.265C1809.122,2962.413,1803.633,2965.47,1799.035,2966.11Z" fill="#0f054c" opacity="0.3"/>
                <g id="Group_108" data-name="Group 108">
                  <path id="Path_120" data-name="Path 120" d="M1746.042,2990.058l-44.123-25.474c-5.166-2.983-5.166-7.836,0-10.819l44.121-25.473c5.166-2.983,13.572-2.983,18.739,0l44.122,25.475c5.166,2.982,5.166,7.835,0,10.818l-44.122,25.473C1759.614,2993.041,1751.208,2993.041,1746.042,2990.058Z" fill="url(#linear-gradient-2)"/>
                </g>
                <g id="Group_109" data-name="Group 109">
                  <path id="Path_121" data-name="Path 121" d="M1808.9,2964.585l-44.122,25.473c-5.166,2.983-13.572,2.983-18.738,0l-44.123-25.474c-2.309-1.333-3.583-3.04-3.828-4.787-.3,2.161.971,4.383,3.828,6.033l44.123,25.474c5.166,2.982,13.572,2.983,18.738,0l44.122-25.474c2.856-1.649,4.13-3.87,3.827-6.031C1812.484,2961.545,1811.21,2963.252,1808.9,2964.585Z" fill="#fff"/>
                </g>
              </g>
            </g>
          </g>
        </g>
      </g>
      <g id="Group_117" data-name="Group 117" opacity="0.3">
        <path id="Path_122" data-name="Path 122" d="M1616.331,3095.624v-10l-2.765-1.538c-.781,4.718-6.334,7.827-10.976,8.473l-31.616,18.488-13.8,4.982-44.041-22.727,1.017-.588c-3.764-1.758-5.791-5.781-7.827-9.45l-2.965,1.769-1.762.495v10.252h0c0,1.959,1.291,3.918,3.874,5.409l44.123,25.474c5.166,2.983,13.572,2.983,18.738,0l44.122-25.473c2.541-1.467,3.832-3.387,3.873-5.314,0-.086,0-.172-.005-.258Z" fill="url(#linear-gradient)"/>
        <path id="Path_123" data-name="Path 123" d="M1602.59,3092.563l-31.616,18.488-12.009,4.336V3128.9a19.146,19.146,0,0,0,9.37-2.237l44.122-25.473c2.541-1.467,3.832-3.387,3.873-5.314,0-.086,0-.172-.005-.258l.006,0v-10l-2.527-1.406h-.264C1612.677,3088.866,1607.188,3091.923,1602.59,3092.563Z" fill="#0f054c" opacity="0.3"/>
        <g id="Group_115" data-name="Group 115">
          <path id="Path_124" data-name="Path 124" d="M1549.6,3116.511l-44.123-25.474c-5.166-2.983-5.166-7.836,0-10.819l44.122-25.474c5.165-2.982,13.571-2.982,18.738,0l44.122,25.474c5.166,2.983,5.166,7.836,0,10.818l-44.122,25.474C1563.169,3119.493,1554.763,3119.493,1549.6,3116.511Z" fill="url(#linear-gradient-2)"/>
        </g>
        <g id="Group_116" data-name="Group 116" opacity="0.3">
          <path id="Path_125" data-name="Path 125" d="M1549.6,3116.511l-44.123-25.474c-5.166-2.983-5.166-7.836,0-10.819l44.122-25.474c5.165-2.982,13.571-2.982,18.738,0l44.122,25.474c5.166,2.983,5.166,7.836,0,10.818l-44.122,25.474C1563.169,3119.493,1554.763,3119.493,1549.6,3116.511Z" fill="#0f054c"/>
        </g>
      </g>
      <g id="Group_125" data-name="Group 125">
        <g id="Group_124" data-name="Group 124">
          <path id="Path_126" data-name="Path 126" d="M1558.964,3079.451a17.009,17.009,0,0,1-8.313-1.984l-44.123-25.476c-2.292-1.322-3.554-3.108-3.554-5.025s1.261-3.7,3.553-5.025l44.122-25.473c4.585-2.645,12.045-2.645,16.631,0l44.124,25.473c2.291,1.324,3.552,3.108,3.552,5.027s-1.262,3.7-3.552,5.023l-44.122,25.473A17,17,0,0,1,1558.964,3079.451Zm-7.928-2.655a17.553,17.553,0,0,0,15.859,0l44.123-25.474c2.041-1.178,3.165-2.722,3.165-4.352s-1.124-3.178-3.166-4.356l-44.123-25.473a17.539,17.539,0,0,0-15.86,0l-44.122,25.473c-2.041,1.178-3.165,2.725-3.165,4.354s1.126,3.176,3.167,4.354Z" fill="#42e8e0"/>
          <g id="Group_123" data-name="Group 123">
            <path id="Path_127" data-name="Path 127" d="M1616.331,3037.189V3022.08l-2.765-1.538c-.781,4.719-6.334,7.827-10.976,8.473l-31.616,18.488-13.8,4.983-44.041-22.728,1.017-.587c-3.764-1.759-5.791-5.781-7.827-9.45l-2.965,1.768-1.762.495v15.365h0c0,1.959,1.291,3.918,3.874,5.409l44.123,25.474c5.166,2.983,13.572,2.983,18.738,0l44.122-25.473c2.541-1.468,3.832-3.387,3.873-5.314,0-.086,0-.172-.005-.258Z" fill="#42e8e0" opacity="0.4"/>
            <g id="Group_122" data-name="Group 122">
              <g id="Group_121" data-name="Group 121">
                <path id="Path_128" data-name="Path 128" d="M1616.331,3023.759v-10l-2.765-1.537c-.781,4.718-6.334,7.826-10.976,8.472l-31.616,18.488-13.8,4.983-44.041-22.728,1.017-.588c-3.764-1.757-5.791-5.78-7.827-9.449l-2.965,1.768-1.762.5v10.253h0c0,1.958,1.291,3.917,3.874,5.409L1549.6,3054.8c5.166,2.983,13.572,2.983,18.738,0l44.122-25.474c2.541-1.467,3.832-3.386,3.873-5.313,0-.086,0-.172-.005-.258Z" fill="url(#linear-gradient)"/>
                <path id="Path_129" data-name="Path 129" d="M1602.59,3020.7l-31.616,18.488-12.009,4.337v13.517a19.167,19.167,0,0,0,9.37-2.237l44.122-25.474c2.541-1.467,3.832-3.386,3.873-5.313,0-.086,0-.172-.005-.258l.006,0v-10l-2.527-1.405h-.264C1612.677,3017,1607.188,3020.057,1602.59,3020.7Z" fill="#0f054c" opacity="0.3"/>
                <g id="Group_118" data-name="Group 118">
                  <path id="Path_130" data-name="Path 130" d="M1549.6,3044.645l-44.123-25.474c-5.166-2.983-5.166-7.836,0-10.819l44.122-25.473c5.165-2.982,13.571-2.982,18.738,0l44.122,25.475c5.166,2.982,5.166,7.835,0,10.818l-44.122,25.473C1563.169,3047.628,1554.763,3047.628,1549.6,3044.645Z" fill="url(#linear-gradient-2)"/>
                </g>
                <g id="Group_119" data-name="Group 119">
                  <path id="Path_131" data-name="Path 131" d="M1558.965,3040.019a15.391,15.391,0,0,1-7.512-1.792l-34.471-19.9c-2.077-1.2-3.221-2.819-3.221-4.562s1.144-3.361,3.221-4.561l34.47-19.9a16.64,16.64,0,0,1,15.026,0l34.471,19.9c2.078,1.2,3.221,2.821,3.22,4.563s-1.143,3.362-3.22,4.56l-34.471,19.9A15.39,15.39,0,0,1,1558.965,3040.019Zm-7.126-2.463a15.769,15.769,0,0,0,14.254,0l34.47-19.9c1.827-1.055,2.833-2.436,2.834-3.889s-1.006-2.838-2.835-3.892l-34.47-19.9a15.784,15.784,0,0,0-14.254,0l-34.471,19.9c-1.826,1.054-2.834,2.437-2.834,3.89s1.008,2.836,2.835,3.891Z" fill="#5351af"/>
                </g>
                <g id="Group_120" data-name="Group 120">
                  <path id="Path_132" data-name="Path 132" d="M1612.457,3019.172l-44.122,25.473c-5.166,2.983-13.572,2.983-18.738,0l-44.123-25.474c-2.309-1.333-3.583-3.04-3.828-4.787-.3,2.161.971,4.383,3.828,6.033l44.123,25.474c5.166,2.983,13.572,2.983,18.738,0l44.122-25.474c2.857-1.649,4.13-3.87,3.827-6.031C1616.039,3016.132,1614.766,3017.839,1612.457,3019.172Z" fill="#fff"/>
                </g>
              </g>
            </g>
          </g>
        </g>
      </g>
      <g id="Group_128" data-name="Group 128" opacity="0.3">
        <path id="Path_133" data-name="Path 133" d="M1238.99,2741v-10l-2.765-1.538c-.781,4.718-6.334,7.826-10.976,8.473l-31.616,18.488-13.8,4.982-44.042-22.728,1.018-.587c-3.764-1.758-5.791-5.781-7.827-9.45l-2.965,1.769-1.761.5v10.252h0c0,1.959,1.291,3.918,3.874,5.409l44.123,25.474c5.166,2.983,13.572,2.983,18.738,0l44.122-25.473c2.541-1.467,3.832-3.387,3.873-5.314,0-.086,0-.172-.005-.258Z" fill="url(#linear-gradient)"/>
        <path id="Path_134" data-name="Path 134" d="M1225.249,2737.934l-31.616,18.488-12.009,4.336v13.517a19.156,19.156,0,0,0,9.37-2.237l44.122-25.473c2.541-1.467,3.832-3.387,3.873-5.314,0-.086,0-.172-.005-.258l.006,0v-10l-2.527-1.406h-.264C1235.336,2734.237,1229.847,2737.294,1225.249,2737.934Z" fill="#0f054c" opacity="0.3"/>
        <g id="Group_126" data-name="Group 126">
          <path id="Path_135" data-name="Path 135" d="M1172.256,2761.882l-44.123-25.474c-5.166-2.983-5.166-7.837,0-10.819l44.121-25.474c5.166-2.982,13.572-2.982,18.739,0l44.122,25.474c5.166,2.982,5.166,7.836,0,10.818l-44.122,25.474C1185.828,2764.864,1177.422,2764.864,1172.256,2761.882Z" fill="url(#linear-gradient-2)"/>
        </g>
        <g id="Group_127" data-name="Group 127" opacity="0.3">
          <path id="Path_136" data-name="Path 136" d="M1172.256,2761.882l-44.123-25.474c-5.166-2.983-5.166-7.837,0-10.819l44.121-25.474c5.166-2.982,13.572-2.982,18.739,0l44.122,25.474c5.166,2.982,5.166,7.836,0,10.818l-44.122,25.474C1185.828,2764.864,1177.422,2764.864,1172.256,2761.882Z" fill="#0f054c"/>
        </g>
      </g>
      <g id="Group_136" data-name="Group 136">
        <g id="Group_135" data-name="Group 135">
          <path id="Path_137" data-name="Path 137" d="M1181.626,2731.36a17.007,17.007,0,0,1-8.317-1.986l-44.123-25.473c-2.292-1.322-3.553-3.109-3.553-5.025s1.261-3.7,3.553-5.026l44.122-25.473c4.585-2.644,12.046-2.644,16.631,0l44.123,25.473c2.291,1.322,3.553,3.109,3.553,5.026s-1.261,3.7-3.552,5.025l-44.122,25.473A17,17,0,0,1,1181.626,2731.36Zm0-64.205a16.208,16.208,0,0,0-7.93,1.893l-44.121,25.473c-2.041,1.178-3.165,2.725-3.165,4.355s1.124,3.175,3.165,4.354L1173.7,2728.7c4.369,2.527,11.486,2.527,15.858,0l44.122-25.473c2.041-1.179,3.165-2.725,3.165-4.354s-1.125-3.177-3.166-4.355l-44.122-25.473A16.214,16.214,0,0,0,1181.623,2667.155Z" fill="#42e8e0"/>
          <g id="Group_134" data-name="Group 134">
            <path id="Path_138" data-name="Path 138" d="M1238.99,2689.1v-15.109l-2.765-1.537c-.781,4.718-6.334,7.826-10.976,8.472l-31.616,18.488-13.8,4.983-44.042-22.728,1.018-.587c-3.764-1.758-5.791-5.781-7.827-9.45l-2.965,1.768-1.761.5v15.365h0c0,1.959,1.291,3.918,3.874,5.409l44.123,25.474c5.166,2.983,13.572,2.983,18.738,0l44.122-25.473c2.541-1.467,3.832-3.387,3.873-5.314,0-.086,0-.172-.005-.258Z" fill="#42e8e0" opacity="0.4"/>
            <g id="Group_133" data-name="Group 133">
              <g id="Group_132" data-name="Group 132">
                <path id="Path_139" data-name="Path 139" d="M1238.99,2675.668v-10l-2.765-1.538c-.781,4.718-6.334,7.826-10.976,8.473l-31.616,18.488-13.8,4.982-44.042-22.728,1.018-.587c-3.764-1.758-5.791-5.781-7.827-9.45l-2.965,1.768-1.761.5v10.252h0c0,1.959,1.291,3.918,3.874,5.409l44.123,25.474c5.166,2.983,13.572,2.983,18.738,0l44.122-25.473c2.541-1.467,3.832-3.387,3.873-5.314,0-.086,0-.172-.005-.258Z" fill="url(#linear-gradient)"/>
                <path id="Path_140" data-name="Path 140" d="M1225.249,2672.607l-31.616,18.488-12.009,4.336v13.517a19.167,19.167,0,0,0,9.37-2.237l44.122-25.473c2.541-1.467,3.832-3.387,3.873-5.314,0-.086,0-.172-.005-.258l.006,0v-10l-2.527-1.406h-.264C1235.336,2668.909,1229.847,2671.966,1225.249,2672.607Z" fill="#0f054c" opacity="0.3"/>
                <path id="Path_141" data-name="Path 141" d="M1136.812,2672.762l41.812-24.14a6.638,6.638,0,0,1,6,0l41.081,23.718-.455.267c4.642-.647,10.195-3.755,10.976-8.473l-46.1-25.643-13.414-3.545-10.923,6.42-36.8,21.946C1131.021,2666.981,1133.048,2671,1136.812,2672.762Z" fill="url(#linear-gradient-14)"/>
                <path id="Path_142" data-name="Path 142" d="M1181.624,2636.246l-4.918-1.3-10.923,6.42-36.8,21.946c2.036,3.669,4.063,7.692,7.827,9.45l41.812-24.14a6.128,6.128,0,0,1,3-.716Z" fill="#0f054c" opacity="0.3"/>
                <g id="Group_129" data-name="Group 129">
                  <path id="Path_143" data-name="Path 143" d="M1172.256,2696.555l-44.123-25.475c-5.166-2.982-5.166-7.836,0-10.818l44.121-25.474c5.166-2.982,13.572-2.982,18.739,0l44.122,25.475c5.166,2.982,5.166,7.836,0,10.818l-44.122,25.474C1185.828,2699.537,1177.422,2699.537,1172.256,2696.555Zm12.368-58.089a6.64,6.64,0,0,0-6,0l-44.122,25.474c-1.654.955-1.654,2.509,0,3.464l44.123,25.475a6.643,6.643,0,0,0,6,0l44.121-25.473c1.655-.955,1.655-2.509,0-3.464Z" fill="url(#linear-gradient-2)"/>
                </g>
                <g id="Group_130" data-name="Group 130">
                  <path id="Path_144" data-name="Path 144" d="M1228.746,2663.94l-44.123-25.474a6.638,6.638,0,0,0-6,0l-44.122,25.474c-1.1.637-1.466,1.54-1.1,2.355a2.549,2.549,0,0,1,1.1-1.109l44.122-25.474a6.64,6.64,0,0,1,6,0l44.123,25.475a2.544,2.544,0,0,1,1.1,1.109C1230.213,2665.48,1229.85,2664.577,1228.746,2663.94Z" fill="#fff"/>
                  <path id="Path_145" data-name="Path 145" d="M1235.116,2671.081l-44.122,25.474c-5.166,2.982-13.572,2.982-18.738,0l-44.123-25.475c-2.309-1.333-3.583-3.04-3.828-4.786-.3,2.161.971,4.382,3.828,6.032l44.123,25.474c5.166,2.983,13.572,2.983,18.738,0l44.122-25.473c2.857-1.65,4.13-3.871,3.827-6.032C1238.7,2668.041,1237.424,2669.748,1235.116,2671.081Z" fill="#fff"/>
                </g>
                <g id="Group_131" data-name="Group 131">
                  <path id="Path_146" data-name="Path 146" d="M1173.5,2695.835l-44.123-25.474c-4.479-2.586-4.479-6.794,0-9.38l44.122-25.473c4.478-2.586,11.766-2.586,16.245,0l44.123,25.474c4.479,2.586,4.479,6.794,0,9.38l-44.121,25.473C1185.269,2698.421,1177.981,2698.421,1173.5,2695.835Zm12.368-58.089a9.4,9.4,0,0,0-8.493,0l-44.121,25.473c-2.341,1.352-2.341,3.552,0,4.9l44.123,25.474a9.4,9.4,0,0,0,8.492,0l44.122-25.474c2.341-1.352,2.341-3.551,0-4.9Z" fill="url(#linear-gradient-2)"/>
                </g>
              </g>
              <path id="Path_147" data-name="Path 147" d="M1184.624,2638.466a6.64,6.64,0,0,0-6,0l-44.122,25.474c-1.654.955-1.654,2.509,0,3.464l44.123,25.475a6.643,6.643,0,0,0,6,0l44.121-25.473c1.655-.955,1.655-2.509,0-3.464Z" fill="#42e8e0" opacity="0.4"/>
            </g>
          </g>
        </g>
        <path id="Path_148" data-name="Path 148" d="M1229.981,2665.638V2508.272h-96.719l.005,157.365a2.081,2.081,0,0,0,1.235,1.766l44.123,25.475a6.643,6.643,0,0,0,6,0l44.121-25.473A2.078,2.078,0,0,0,1229.981,2665.638Z" opacity="0.5" fill="url(#linear-gradient-17)" style="mix-blend-mode: lighten;isolation: isolate"/>
      </g>
      <g id="Group_137" data-name="Group 137" opacity="0.1">
        <path id="Path_149" data-name="Path 149" d="M1454.382,2847.19c0-24.873-17.462-55.12-39-67.557-10.791-6.23-20.558-6.808-27.619-2.707v0l-7.375,4.314,2.142.2c-3.888,4.76-6.152,11.775-6.152,20.712,0,24.873,17.462,55.12,39,67.557,7.4,4.273,14.322,5.888,20.218,5.157l-.164,1.977,7.486-4.381c.031-.017.061-.036.092-.054l.3-.177-.017,0C1450.152,2868.068,1454.382,2859.423,1454.382,2847.19Z" fill="#9ffff8"/>
        <ellipse id="Ellipse_10" data-name="Ellipse 10" cx="31.847" cy="55.16" rx="31.847" ry="55.16" transform="translate(1352.761 2797.188) rotate(-30.001)" fill="#42e8e0"/>
      </g>
      <path id="Path_150" data-name="Path 150" d="M1410.443,2887.78c-26.907,0-53.815-5.914-74.3-17.74-19.92-11.5-30.891-26.817-30.891-43.124s10.97-31.618,30.889-43.117c40.968-23.657,107.629-23.655,148.6,0,19.92,11.5,30.891,26.815,30.89,43.122s-10.969,31.62-30.888,43.119l-.193-.336.193.336C1464.258,2881.866,1437.351,2887.78,1410.443,2887.78Zm0-120.959c-26.767,0-53.535,5.881-73.913,17.649-19.669,11.355-30.5,26.429-30.5,42.446s10.833,31.1,30.5,42.453c40.758,23.537,107.071,23.537,147.827,0h0c19.669-11.355,30.5-26.429,30.5-42.448s-10.834-31.1-30.5-42.451C1463.975,2772.7,1437.208,2766.821,1410.44,2766.821Z" fill="#42e8e0" opacity="0.4"/>
      <path id="Path_151" data-name="Path 151" d="M1410.445,2904.091c-34.15,0-68.292-7.5-94.289-22.513-25.258-14.583-39.169-33.994-39.169-54.66s13.91-40.078,39.167-54.66c51.99-30.017,136.583-30.015,188.573,0,25.258,14.584,39.169,33.995,39.169,54.661s-13.91,40.078-39.167,54.659C1478.737,2896.587,1444.587,2904.091,1410.445,2904.091Zm-.007-153.581c-34.007,0-68.009,7.471-93.9,22.419-25.007,14.438-38.781,33.611-38.779,53.989s13.772,39.552,38.781,53.99c51.778,29.9,136.023,29.9,187.8,0,25.007-14.438,38.779-33.612,38.779-53.989s-13.772-39.552-38.781-53.99C1478.452,2757.984,1444.443,2750.51,1410.438,2750.51Z" fill="#42e8e0" opacity="0.2"/>
      <path id="Path_152" data-name="Path 152" d="M1410.442,2874.93c-21.2,0-42.41-4.659-58.554-13.98-15.714-9.073-24.369-21.158-24.369-34.032s8.654-24.957,24.367-34.029c32.288-18.638,84.823-18.638,117.109,0,15.714,9.072,24.368,21.158,24.368,34.032s-8.653,24.956-24.367,34.029l-.193-.336.193.336C1452.854,2870.271,1431.648,2874.93,1410.442,2874.93Zm0-95.259c-21.065,0-42.131,4.629-58.168,13.889-15.463,8.927-23.979,20.774-23.979,33.358s8.517,24.432,23.981,33.361c32.075,18.522,84.263,18.518,116.336,0,15.464-8.927,23.98-20.774,23.98-33.358s-8.517-24.432-23.981-33.361C1452.571,2784.3,1431.506,2779.671,1410.44,2779.671Z" fill="#42e8e0"/>
      <g id="Group_138" data-name="Group 138">
        <path id="Path_153" data-name="Path 153" d="M1305.686,2954.8l-122.5-70.726a5.42,5.42,0,0,1,0-9.388l18.7-10.89a20.2,20.2,0,0,1,20.2,0l122.5,70.725a5.421,5.421,0,0,1,0,9.388l-18.7,10.891A20.2,20.2,0,0,1,1305.686,2954.8Z" fill="#24126a" opacity="0.4"/>
        <path id="Path_154" data-name="Path 154" d="M1244.362,2882.505l-19.607-11.32,3.9-2.251,19.607,11.32Z" fill="#42e8e0"/>
        <path id="Path_155" data-name="Path 155" d="M1299.633,2915.211l-6.022-3.477,3.9-2.251,6.022,3.477Z" fill="#42e8e0"/>
        <path id="Path_156" data-name="Path 156" d="M1255.718,2889.234l-6.022-3.477,3.9-2.251,6.022,3.477Z" fill="#42e8e0"/>
        <path id="Path_157" data-name="Path 157" d="M1315.788,2940.709a20.643,20.643,0,0,1-10.323-2.758l-122.5-70.725a5.864,5.864,0,0,1,0-10.156l18.7-10.891a20.7,20.7,0,0,1,20.648,0l122.5,70.727a5.862,5.862,0,0,1,0,10.153l-18.7,10.892A20.647,20.647,0,0,1,1315.788,2940.709Zm-103.8-96.4a19.746,19.746,0,0,0-9.882,2.641l-18.7,10.891a4.978,4.978,0,0,0,0,8.622l122.5,70.725a19.809,19.809,0,0,0,19.761,0l18.7-10.891a4.977,4.977,0,0,0,0-8.62l-122.5-70.727A19.745,19.745,0,0,0,1211.99,2844.3Z" fill="#42e8e0"/>
      </g>
    </g>
    <path id="Path_158" data-name="Path 158" d="M1308.96,2476.964l.1,52.547,22.857,11.69.246,243.11,34.123,19.545,44.871-26.874c8.152,43.286,51.072,105.924,94.756,87.739q26.572-15.526,53.142-31.066c46.988-38.986,32.754-191.8,15.548-246.794-12.481-41.5-51.37-87.133-90.95-70.869q-19.718,11.52-39.429,23.05c-8.552,5.443-17.716,8.556-23.889,17.418l.019-82.475-57.39-28.587-54,31.566m190.251,272.871c-14.108-35.249-11.489-80.593-10.808-121.061,14.692,35.742,12.2,81.488,11.386,122.37C1499.595,2750.71,1499.4,2750.279,1499.211,2749.835Z" fill="url(#linear-gradient-2)"/>
    <g id="Group_140" data-name="Group 140">
      <path id="Path_159" data-name="Path 159" d="M1309.056,2529.511l-.1-52.547,57.39,28.586-.068,298.306-34.123-19.545-.246-243.11Z" fill="#0f054c"/>
      <path id="Path_160" data-name="Path 160" d="M1415.316,2565.071c10.391-22.119,27.714-27.231,52.126-15.107q37.055,18.4,53.157,68.462,16.047,50.209,15.592,124.02-.473,73.871-16.93,106.513c-10.875,21.61-28.6,25.3-53.021,11.321q-36.2-20.729-51.373-70.045-15.223-49.191-15.107-120.734Q1399.863,2598.025,1415.316,2565.071Zm82.964,104.361q-2.339-22.651-9.578-39.977-7.228-17.28-21.473-24.543-14.169-7.229-21.353,2.557-7.178,9.744-9.6,29.6-2.429,19.827-2.505,50.612-.086,31.57,2.091,54.119,2.177,22.564,9.351,39.6,7.189,17.078,21.238,24.942,14.123,7.9,21.562-1.138,7.449-9.083,9.865-29.434,2.414-20.388,2.578-52.431A510.125,510.125,0,0,0,1498.28,2669.432Z" fill="#0f054c"/>
    </g>
    <g id="Group_141" data-name="Group 141">
      <path id="Path_161" data-name="Path 161" d="M1696.21,2596.04c.613-24.866-16.1-55.534-37.327-68.5-10.634-6.494-20.384-7.313-27.544-3.388h0l-7.479,4.131,2.137.253c-4.005,4.663-6.441,11.62-6.662,20.555-.613,24.865,16.1,55.533,37.328,68.5,7.294,4.455,14.172,6.24,20.084,5.655l-.213,1.972,7.592-4.2.094-.052.307-.169-.017-.005C1691.466,2616.807,1695.909,2608.269,1696.21,2596.04Z" fill="#9ffff8"/>
      <ellipse id="Ellipse_11" data-name="Ellipse 11" cx="31.847" cy="55.16" rx="31.847" ry="55.16" transform="translate(1595.852 2543.547) rotate(-28.589)" fill="#42e8e0"/>
    </g>
    <g id="Group_142" data-name="Group 142">
      <path id="Path_162" data-name="Path 162" d="M1607.764,2486.327c14.935-19.89,19.132-54.563,9.373-77.443-4.888-11.461-12.352-17.788-20.461-18.749h0l-8.488-.978,1.592,1.447c-5.967,1.471-11.99,5.721-17.356,12.868-14.935,19.891-19.132,54.563-9.373,77.443,3.353,7.862,7.917,13.308,13.071,16.264l-1.319,1.482,8.617.992.106.012.349.04-.011-.013C1591.845,2500.482,1600.419,2496.11,1607.764,2486.327Z" fill="#9ffff8"/>
      <ellipse id="Ellipse_12" data-name="Ellipse 12" cx="55.16" cy="31.846" rx="55.16" ry="31.846" transform="translate(1543.27 2494.844) rotate(-83.1)" fill="#42e8e0"/>
    </g>
  </g>
</svg>
