<svg xmlns="http://www.w3.org/2000/svg" xmlns:xlink="http://www.w3.org/1999/xlink" width="742.848" height="846.923" viewBox="0 0 742.848 846.923">
  <defs>
    <linearGradient id="linear-gradient" x1="-0.143" y1="-0.046" x2="-0.195" y2="0.751" gradientUnits="objectBoundingBox">
      <stop offset="0" stop-color="#ff387a"/>
      <stop offset="1" stop-color="#4845ff"/>
    </linearGradient>
    <clipPath id="clip-path">
      <path id="Path_168" data-name="Path 168" d="M1789.707,3253.011l217.352-26.743,60.48,226.606,232.289-91.651-102.991,271.051,144.657,44.444,22.589-12.142,28.941,36.236-49.551-2.294-180.743-57.962L2249.5,3412.2l-201.514,79.508-62.35-233.636-192.4,23.671Z" fill="url(#linear-gradient)"/>
    </clipPath>
    <clipPath id="clip-path-2">
      <path id="Path_170" data-name="Path 170" d="M2061.14,3486.35l-204.608,49.609,105.761,197.092L2149.982,3867.5l-16.9,23.585-190.314-136.328-4.266-4.944-125.119-233.15,241-58.428Z" fill="url(#linear-gradient)"/>
    </clipPath>
    <clipPath id="clip-path-3">
      <path id="Path_172" data-name="Path 172" d="M2151.185,3300.425a27.021,27.021,0,1,1-37.7,6.231,27.023,27.023,0,0,1,37.7-6.231" fill="url(#linear-gradient)" clip-rule="evenodd"/>
    </clipPath>
    <clipPath id="clip-path-4">
      <path id="Path_174" data-name="Path 174" d="M1928.387,3371.17a27.021,27.021,0,1,1-37.7,6.231,27.018,27.018,0,0,1,37.7-6.231" fill="url(#linear-gradient)" clip-rule="evenodd"/>
    </clipPath>
    <clipPath id="clip-path-5">
      <path id="Path_176" data-name="Path 176" d="M2297.342,3565.795a27.021,27.021,0,1,1-37.7,6.23,27.025,27.025,0,0,1,37.7-6.23" fill="url(#linear-gradient)" clip-rule="evenodd"/>
    </clipPath>
    <clipPath id="clip-path-6">
      <path id="Path_178" data-name="Path 178" d="M2059.267,3628.374a27.024,27.024,0,1,1-37.705,6.237,27.025,27.025,0,0,1,37.705-6.237" fill="url(#linear-gradient)" clip-rule="evenodd"/>
    </clipPath>
    <clipPath id="clip-path-7">
      <path id="Path_180" data-name="Path 180" d="M2175.271,3496.085a16.058,16.058,0,1,1-22.411,3.7,16.059,16.059,0,0,1,22.411-3.7" fill="url(#linear-gradient)" clip-rule="evenodd"/>
    </clipPath>
    <clipPath id="clip-path-8">
      <path id="Path_182" data-name="Path 182" d="M2345.491,3470.994a16.062,16.062,0,1,1-22.411,3.7,16.063,16.063,0,0,1,22.411-3.7" fill="url(#linear-gradient)" clip-rule="evenodd"/>
    </clipPath>
    <clipPath id="clip-path-9">
      <path id="Path_184" data-name="Path 184" d="M2239.606,3740.638a23.684,23.684,0,1,1-33.048,5.461,23.687,23.687,0,0,1,33.048-5.461" fill="url(#linear-gradient)" clip-rule="evenodd"/>
    </clipPath>
    <clipPath id="clip-path-10">
      <path id="Path_186" data-name="Path 186" d="M1741.658,3402.031a22.75,22.75,0,1,1-31.741,5.247,22.75,22.75,0,0,1,31.741-5.247" fill="url(#linear-gradient)" clip-rule="evenodd"/>
    </clipPath>
    <clipPath id="clip-path-11">
      <rect id="Rectangle_92" data-name="Rectangle 92" width="237.642" height="28.885" transform="matrix(0.933, -0.36, 0.36, 0.933, 1914.605, 3951.291)" fill="url(#linear-gradient)"/>
    </clipPath>
    <clipPath id="clip-path-12">
      <path id="Path_188" data-name="Path 188" d="M1998.256,3849.238a15.646,15.646,0,1,1-21.831,3.6,15.642,15.642,0,0,1,21.831-3.6" fill="url(#linear-gradient)" clip-rule="evenodd"/>
    </clipPath>
    <clipPath id="clip-path-13">
      <path id="Path_190" data-name="Path 190" d="M2027.8,3198.261a54.014,54.014,0,1,1-75.365,12.461,54.012,54.012,0,0,1,75.365-12.461" fill="url(#linear-gradient)" clip-rule="evenodd"/>
    </clipPath>
    <clipPath id="clip-path-14">
      <path id="Path_192" data-name="Path 192" d="M1827.036,3199.612a88.272,88.272,0,1,1-123.169,20.357,88.273,88.273,0,0,1,123.169-20.357" fill="url(#linear-gradient)" clip-rule="evenodd"/>
    </clipPath>
    <clipPath id="clip-path-15">
      <path id="Path_194" data-name="Path 194" d="M1858.77,3473.837a64.283,64.283,0,1,1-89.7,14.825,64.28,64.28,0,0,1,89.7-14.825" fill="url(#linear-gradient)" clip-rule="evenodd"/>
    </clipPath>
    <clipPath id="clip-path-16">
      <path id="Path_196" data-name="Path 196" d="M2101.9,3410.669a75.8,75.8,0,1,1-105.755,17.483,75.8,75.8,0,0,1,105.755-17.483" fill="url(#linear-gradient)" clip-rule="evenodd"/>
    </clipPath>
    <clipPath id="clip-path-17">
      <path id="Path_198" data-name="Path 198" d="M2312.017,3334.579a64.131,64.131,0,1,1-89.483,14.789,64.129,64.129,0,0,1,89.483-14.789" fill="url(#linear-gradient)" clip-rule="evenodd"/>
    </clipPath>
    <clipPath id="clip-path-18">
      <path id="Path_200" data-name="Path 200" d="M1969.695,3690.563A64.283,64.283,0,1,1,1880,3705.384a64.278,64.278,0,0,1,89.693-14.821" fill="url(#linear-gradient)" clip-rule="evenodd"/>
    </clipPath>
    <clipPath id="clip-path-19">
      <path id="Path_202" data-name="Path 202" d="M2183.683,3805.623a75.8,75.8,0,1,1-105.758,17.473,75.792,75.792,0,0,1,105.758-17.473" fill="url(#linear-gradient)" clip-rule="evenodd"/>
    </clipPath>
    <clipPath id="clip-path-20">
      <path id="Path_204" data-name="Path 204" d="M2403.346,3629.131a64.282,64.282,0,1,1-89.7,14.82,64.278,64.278,0,0,1,89.7-14.82" fill="url(#linear-gradient)" clip-rule="evenodd"/>
    </clipPath>
    <clipPath id="clip-path-21">
      <path id="Path_206" data-name="Path 206" d="M2208.841,3595.852a49.894,49.894,0,1,1-69.614,11.5,49.895,49.895,0,0,1,69.614-11.5" fill="url(#linear-gradient)" clip-rule="evenodd"/>
    </clipPath>
    <clipPath id="clip-path-22">
      <path id="Path_208" data-name="Path 208" d="M1957.794,3911.728a65.244,65.244,0,1,1-91.038,15.044,65.24,65.24,0,0,1,91.038-15.044" fill="url(#linear-gradient)" clip-rule="evenodd"/>
    </clipPath>
  </defs>
  <g id="Group_191" data-name="Group 191" transform="translate(-1687.35 -3183.093)">
    <g id="Group_190" data-name="Group 190">
      <g id="Group_147" data-name="Group 147">
        <path id="Path_167" data-name="Path 167" d="M1789.707,3253.011l217.352-26.743,60.48,226.606,232.289-91.651-102.991,271.051,144.657,44.444,22.589-12.142,28.941,36.236-49.551-2.294-180.743-57.962L2249.5,3412.2l-201.514,79.508-62.35-233.636-192.4,23.671Z" fill="url(#linear-gradient)"/>
        <g id="Group_146" data-name="Group 146" clip-path="url(#clip-path)">
          <rect id="Rectangle_80" data-name="Rectangle 80" width="331.618" height="751.237" transform="matrix(0.582, -0.813, 0.813, 0.582, 1718.356, 3352.617)" fill="url(#linear-gradient)"/>
        </g>
      </g>
      <g id="Group_149" data-name="Group 149">
        <path id="Path_169" data-name="Path 169" d="M2061.14,3486.35l-204.608,49.609,105.761,197.092L2149.982,3867.5l-16.9,23.585-190.314-136.328-4.266-4.944-125.119-233.15,241-58.428Z" fill="url(#linear-gradient)"/>
        <g id="Group_148" data-name="Group 148" clip-path="url(#clip-path-2)">
          <rect id="Rectangle_81" data-name="Rectangle 81" width="306.052" height="477.939" transform="matrix(0.582, -0.813, 0.813, 0.582, 1744.548, 3612.76)" fill="url(#linear-gradient)"/>
        </g>
      </g>
      <g id="Group_151" data-name="Group 151">
        <path id="Path_171" data-name="Path 171" d="M2151.185,3300.425a27.021,27.021,0,1,1-37.7,6.231,27.023,27.023,0,0,1,37.7-6.231" fill-rule="evenodd" fill="url(#linear-gradient)"/>
        <g id="Group_150" data-name="Group 150" clip-path="url(#clip-path-3)">
          <rect id="Rectangle_82" data-name="Rectangle 82" width="54.042" height="54.041" transform="matrix(0.582, -0.813, 0.813, 0.582, 2097.748, 3328.622)" fill="url(#linear-gradient)"/>
        </g>
      </g>
      <g id="Group_153" data-name="Group 153">
        <path id="Path_173" data-name="Path 173" d="M1928.387,3371.17a27.021,27.021,0,1,1-37.7,6.231,27.018,27.018,0,0,1,37.7-6.231" fill-rule="evenodd" fill="url(#linear-gradient)"/>
        <g id="Group_152" data-name="Group 152" clip-path="url(#clip-path-4)">
          <rect id="Rectangle_83" data-name="Rectangle 83" width="54.042" height="54.042" transform="matrix(0.582, -0.813, 0.813, 0.582, 1874.95, 3399.368)" fill="url(#linear-gradient)"/>
        </g>
      </g>
      <g id="Group_155" data-name="Group 155">
        <path id="Path_175" data-name="Path 175" d="M2297.342,3565.795a27.021,27.021,0,1,1-37.7,6.23,27.025,27.025,0,0,1,37.7-6.23" fill-rule="evenodd" fill="url(#linear-gradient)"/>
        <g id="Group_154" data-name="Group 154" clip-path="url(#clip-path-5)">
          <rect id="Rectangle_84" data-name="Rectangle 84" width="54.041" height="54.044" transform="matrix(0.582, -0.813, 0.813, 0.582, 2243.905, 3593.992)" fill="url(#linear-gradient)"/>
        </g>
      </g>
      <g id="Group_157" data-name="Group 157">
        <path id="Path_177" data-name="Path 177" d="M2059.267,3628.374a27.024,27.024,0,1,1-37.705,6.237,27.025,27.025,0,0,1,37.705-6.237" fill-rule="evenodd" fill="url(#linear-gradient)"/>
        <g id="Group_156" data-name="Group 156" clip-path="url(#clip-path-6)">
          <rect id="Rectangle_85" data-name="Rectangle 85" width="54.048" height="54.041" transform="matrix(0.582, -0.813, 0.813, 0.582, 2005.827, 3656.577)" fill="url(#linear-gradient)"/>
        </g>
      </g>
      <g id="Group_159" data-name="Group 159">
        <path id="Path_179" data-name="Path 179" d="M2175.271,3496.085a16.058,16.058,0,1,1-22.411,3.7,16.059,16.059,0,0,1,22.411-3.7" fill-rule="evenodd" fill="url(#linear-gradient)"/>
        <g id="Group_158" data-name="Group 158" clip-path="url(#clip-path-7)">
          <rect id="Rectangle_86" data-name="Rectangle 86" width="32.117" height="32.124" transform="matrix(0.582, -0.813, 0.813, 0.582, 2143.51, 3512.84)" fill="url(#linear-gradient)"/>
        </g>
      </g>
      <g id="Group_161" data-name="Group 161">
        <path id="Path_181" data-name="Path 181" d="M2345.491,3470.994a16.062,16.062,0,1,1-22.411,3.7,16.063,16.063,0,0,1,22.411-3.7" fill-rule="evenodd" fill="url(#linear-gradient)"/>
        <g id="Group_160" data-name="Group 160" clip-path="url(#clip-path-8)">
          <rect id="Rectangle_87" data-name="Rectangle 87" width="32.124" height="32.126" transform="matrix(0.582, -0.813, 0.813, 0.582, 2313.726, 3487.756)" fill="url(#linear-gradient)"/>
        </g>
      </g>
      <g id="Group_163" data-name="Group 163">
        <path id="Path_183" data-name="Path 183" d="M2239.606,3740.638a23.684,23.684,0,1,1-33.048,5.461,23.687,23.687,0,0,1,33.048-5.461" fill-rule="evenodd" fill="url(#linear-gradient)"/>
        <g id="Group_162" data-name="Group 162" clip-path="url(#clip-path-9)">
          <rect id="Rectangle_88" data-name="Rectangle 88" width="47.369" height="47.37" transform="matrix(0.582, -0.813, 0.813, 0.582, 2192.766, 3765.354)" fill="url(#linear-gradient)"/>
        </g>
      </g>
      <g id="Group_165" data-name="Group 165">
        <path id="Path_185" data-name="Path 185" d="M1741.658,3402.031a22.75,22.75,0,1,1-31.741,5.247,22.75,22.75,0,0,1,31.741-5.247" fill-rule="evenodd" fill="url(#linear-gradient)"/>
        <g id="Group_164" data-name="Group 164" clip-path="url(#clip-path-10)">
          <rect id="Rectangle_89" data-name="Rectangle 89" width="45.5" height="45.499" transform="matrix(0.582, -0.813, 0.813, 0.582, 1696.668, 3425.773)" fill="url(#linear-gradient)"/>
        </g>
      </g>
      <g id="Group_167" data-name="Group 167">
        <rect id="Rectangle_90" data-name="Rectangle 90" width="237.642" height="28.885" transform="matrix(0.933, -0.36, 0.36, 0.933, 1914.605, 3951.291)" fill="url(#linear-gradient)"/>
        <g id="Group_166" data-name="Group 166" clip-path="url(#clip-path-11)">
          <rect id="Rectangle_91" data-name="Rectangle 91" width="214.483" height="154.618" transform="matrix(0.582, -0.813, 0.813, 0.582, 1905.368, 3964.189)" fill="url(#linear-gradient)"/>
        </g>
      </g>
      <g id="Group_169" data-name="Group 169">
        <path id="Path_187" data-name="Path 187" d="M1998.256,3849.238a15.646,15.646,0,1,1-21.831,3.6,15.642,15.642,0,0,1,21.831-3.6" fill-rule="evenodd" fill="url(#linear-gradient)"/>
        <g id="Group_168" data-name="Group 168" clip-path="url(#clip-path-12)">
          <rect id="Rectangle_93" data-name="Rectangle 93" width="31.291" height="31.294" transform="matrix(0.582, -0.813, 0.813, 0.582, 1967.312, 3865.563)" fill="url(#linear-gradient)"/>
        </g>
      </g>
      <g id="Group_171" data-name="Group 171">
        <path id="Path_189" data-name="Path 189" d="M2027.8,3198.261a54.014,54.014,0,1,1-75.365,12.461,54.012,54.012,0,0,1,75.365-12.461" fill-rule="evenodd" fill="url(#linear-gradient)"/>
        <g id="Group_170" data-name="Group 170" clip-path="url(#clip-path-13)">
          <rect id="Rectangle_94" data-name="Rectangle 94" width="108.029" height="108.022" transform="matrix(0.582, -0.813, 0.813, 0.582, 1920.987, 3254.629)" fill="url(#linear-gradient)"/>
        </g>
      </g>
      <g id="Group_173" data-name="Group 173">
        <path id="Path_191" data-name="Path 191" d="M1827.036,3199.612a88.272,88.272,0,1,1-123.169,20.357,88.273,88.273,0,0,1,123.169-20.357" fill-rule="evenodd" fill="url(#linear-gradient)"/>
        <g id="Group_172" data-name="Group 172" clip-path="url(#clip-path-14)">
          <rect id="Rectangle_95" data-name="Rectangle 95" width="176.543" height="176.543" transform="matrix(0.582, -0.813, 0.813, 0.582, 1652.465, 3291.726)" fill="url(#linear-gradient)"/>
        </g>
      </g>
      <g id="Group_175" data-name="Group 175">
        <path id="Path_193" data-name="Path 193" d="M1858.77,3473.837a64.283,64.283,0,1,1-89.7,14.825,64.28,64.28,0,0,1,89.7-14.825" fill-rule="evenodd" fill="url(#linear-gradient)"/>
        <g id="Group_174" data-name="Group 174" clip-path="url(#clip-path-15)">
          <rect id="Rectangle_96" data-name="Rectangle 96" width="128.566" height="128.565" transform="matrix(0.582, -0.813, 0.813, 0.582, 1731.641, 3540.919)" fill="url(#linear-gradient)"/>
        </g>
      </g>
      <g id="Group_177" data-name="Group 177">
        <path id="Path_195" data-name="Path 195" d="M2101.9,3410.669a75.8,75.8,0,1,1-105.755,17.483,75.8,75.8,0,0,1,105.755-17.483" fill-rule="evenodd" fill="url(#linear-gradient)"/>
        <g id="Group_176" data-name="Group 176" clip-path="url(#clip-path-16)">
          <rect id="Rectangle_97" data-name="Rectangle 97" width="151.599" height="151.592" transform="matrix(0.582, -0.813, 0.813, 0.582, 1952.005, 3489.774)" fill="url(#linear-gradient)"/>
        </g>
      </g>
      <g id="Group_179" data-name="Group 179">
        <path id="Path_197" data-name="Path 197" d="M2312.017,3334.579a64.131,64.131,0,1,1-89.483,14.789,64.129,64.129,0,0,1,89.483-14.789" fill-rule="evenodd" fill="url(#linear-gradient)"/>
        <g id="Group_178" data-name="Group 178" clip-path="url(#clip-path-17)">
          <rect id="Rectangle_98" data-name="Rectangle 98" width="128.263" height="128.257" transform="matrix(0.582, -0.813, 0.813, 0.582, 2185.188, 3401.503)" fill="url(#linear-gradient)"/>
        </g>
      </g>
      <g id="Group_181" data-name="Group 181">
        <path id="Path_199" data-name="Path 199" d="M1969.695,3690.563A64.283,64.283,0,1,1,1880,3705.384a64.278,64.278,0,0,1,89.693-14.821" fill-rule="evenodd" fill="url(#linear-gradient)"/>
        <g id="Group_180" data-name="Group 180" clip-path="url(#clip-path-18)">
          <rect id="Rectangle_99" data-name="Rectangle 99" width="128.566" height="128.565" transform="matrix(0.582, -0.813, 0.813, 0.582, 1842.566, 3757.645)" fill="url(#linear-gradient)"/>
        </g>
      </g>
      <g id="Group_183" data-name="Group 183">
        <path id="Path_201" data-name="Path 201" d="M2183.683,3805.623a75.8,75.8,0,1,1-105.758,17.473,75.792,75.792,0,0,1,105.758-17.473" fill-rule="evenodd" fill="url(#linear-gradient)"/>
        <g id="Group_182" data-name="Group 182" clip-path="url(#clip-path-19)">
          <rect id="Rectangle_100" data-name="Rectangle 100" width="151.592" height="151.592" transform="matrix(0.582, -0.813, 0.813, 0.582, 2033.783, 3884.718)" fill="url(#linear-gradient)"/>
        </g>
      </g>
      <g id="Group_185" data-name="Group 185">
        <path id="Path_203" data-name="Path 203" d="M2403.346,3629.131a64.282,64.282,0,1,1-89.7,14.82,64.278,64.278,0,0,1,89.7-14.82" fill-rule="evenodd" fill="url(#linear-gradient)"/>
        <g id="Group_184" data-name="Group 184" clip-path="url(#clip-path-20)">
          <rect id="Rectangle_101" data-name="Rectangle 101" width="128.565" height="128.565" transform="matrix(0.582, -0.813, 0.813, 0.582, 2276.215, 3696.211)" fill="url(#linear-gradient)"/>
        </g>
      </g>
      <g id="Group_187" data-name="Group 187">
        <path id="Path_205" data-name="Path 205" d="M2208.841,3595.852a49.894,49.894,0,1,1-69.614,11.5,49.895,49.895,0,0,1,69.614-11.5" fill-rule="evenodd" fill="url(#linear-gradient)"/>
        <g id="Group_186" data-name="Group 186" clip-path="url(#clip-path-21)">
          <rect id="Rectangle_102" data-name="Rectangle 102" width="99.788" height="99.788" transform="matrix(0.582, -0.813, 0.813, 0.582, 2110.171, 3647.919)" fill="url(#linear-gradient)"/>
        </g>
      </g>
      <g id="Group_189" data-name="Group 189">
        <path id="Path_207" data-name="Path 207" d="M1957.794,3911.728a65.244,65.244,0,1,1-91.038,15.044,65.24,65.24,0,0,1,91.038-15.044" fill-rule="evenodd" fill="url(#linear-gradient)"/>
        <g id="Group_188" data-name="Group 188" clip-path="url(#clip-path-22)">
          <rect id="Rectangle_103" data-name="Rectangle 103" width="130.487" height="130.488" transform="matrix(0.582, -0.813, 0.813, 0.582, 1828.762, 3979.811)" fill="url(#linear-gradient)"/>
        </g>
      </g>
    </g>
  </g>
</svg>
